<svg width="100" height="36" viewBox="0 0 100 36" fill="none" xmlns="http://www.w3.org/2000/svg">
<path d="M9.07069 7.36008C9.74798 7.66724 10.2795 8.08533 10.6568 8.63994C11.034 9.19455 11.2226 9.83448 11.2226 10.5597C11.2226 11.7031 10.8196 12.616 10.0138 13.2901C9.20786 13.9642 8.1019 14.3055 6.70445 14.3055H0.000106812V1.07169H6.34437C7.65609 1.07169 8.71061 1.39592 9.5165 2.05291C10.3224 2.70991 10.7339 3.55462 10.7425 4.60411C10.7425 5.84984 10.1938 6.77134 9.08783 7.36008H9.07069ZM2.54639 3.30718V6.5751H6.37866C6.91021 6.5751 7.34745 6.42151 7.67323 6.09728C8.00759 5.77305 8.17049 5.38056 8.16191 4.90274C8.16191 4.43346 7.99902 4.04097 7.65609 3.74233C7.31316 3.43516 6.86734 3.29011 6.31865 3.29865L2.54639 3.30718ZM6.69588 12.0614C7.28743 12.0614 7.75897 11.8993 8.11905 11.5751C8.47055 11.2509 8.65059 10.8328 8.65059 10.3294C8.65059 9.84301 8.47055 9.43345 8.11905 9.10922C7.76754 8.78499 7.29601 8.63141 6.69588 8.63141H2.53781V12.0614H6.67873H6.69588Z" fill="#3327FF"/>
<path d="M17.3094 14.5785C15.9634 14.5785 14.8403 14.1007 13.9315 13.128C13.0228 12.1553 12.5684 10.9608 12.5684 9.52731C12.5684 8.0768 13.0228 6.8652 13.9315 5.90957C14.8403 4.94541 15.972 4.46759 17.318 4.46759C18.6383 4.46759 19.6671 4.93687 20.4044 5.89251V4.74063H22.9335V14.3055H20.4044V13.128C19.6585 14.0922 18.6297 14.57 17.318 14.57L17.3094 14.5785ZM17.7467 12.3259C18.5183 12.3259 19.1698 12.0614 19.6928 11.5239C20.2244 10.9864 20.4816 10.3123 20.4816 9.49319C20.4816 8.69114 20.2244 8.02561 19.6928 7.4966C19.1613 6.96759 18.5183 6.70309 17.7467 6.70309C16.9579 6.70309 16.3063 6.95906 15.8005 7.48807C15.2861 8.01708 15.0375 8.69114 15.0375 9.51025C15.0375 10.3379 15.2861 11.0205 15.8005 11.5495C16.3063 12.0785 16.9579 12.343 17.7467 12.343V12.3259Z" fill="#3327FF"/>
<path d="M31.0006 4.48465C32.2352 4.48465 33.1697 4.86008 33.8213 5.61946C34.4728 6.37885 34.7986 7.41127 34.7986 8.71673V14.314H32.2866V9.19455C32.2866 8.44369 32.1066 7.86349 31.7637 7.43687C31.4207 7.01025 30.9063 6.79694 30.229 6.79694C29.5346 6.79694 28.9773 7.04438 28.5487 7.55632C28.12 8.06827 27.9057 8.7338 27.9057 9.57851V14.3055H25.4023V4.74063H27.9057V5.95223C28.6773 4.96247 29.7061 4.47612 30.9921 4.47612V4.48465H31.0006Z" fill="#3327FF"/>
<path d="M40.7748 10.6195L39.6517 11.8652V14.3055H37.1483V0.500015H39.6517V8.69114L43.1153 4.74063H46.0474L42.3523 8.86179L46.4247 14.3055H43.5697L40.7748 10.6195Z" fill="#3327FF"/>
<path d="M5.43472 26.8993H2.60552V31.5324H0.0163803V18.2987H6.48924C7.8524 18.2987 8.95836 18.7338 9.78997 19.6127C10.6216 20.4915 11.0417 21.4898 11.0417 22.6075C11.0417 23.5034 10.7845 24.314 10.2701 25.0563C9.76425 25.7987 9.04409 26.3191 8.13532 26.6434L11.4361 31.5324H8.42681L5.43472 26.8993ZM2.59695 24.6297H6.31778C6.97792 24.6297 7.5009 24.4335 7.91242 24.0495C8.32393 23.6656 8.52112 23.1792 8.52112 22.6075C8.52112 22.0615 8.32393 21.5922 7.92956 21.2082C7.52661 20.8243 7.02936 20.628 6.42065 20.628H2.60552L2.59695 24.6297Z" fill="#3327FF"/>
<path d="M17.4375 31.8055C15.8858 31.8055 14.6341 31.3447 13.6738 30.4232C12.7051 29.5017 12.225 28.2816 12.225 26.7713C12.225 25.3208 12.6879 24.1092 13.6138 23.1536C14.5398 22.198 15.7572 21.7116 17.2489 21.7116C18.7835 21.7116 19.9924 22.1724 20.884 23.1024C21.7756 24.0324 22.2214 25.2099 22.2214 26.6178C22.2214 27.0017 22.2043 27.3003 22.17 27.5051H14.7026C14.7884 28.1621 15.0627 28.6826 15.5343 29.0836C16.0058 29.4846 16.6574 29.6724 17.489 29.6724C18.6035 29.6724 19.3837 29.2457 19.8295 28.4096L22.0928 29.0751C21.7756 29.7918 21.2184 30.4317 20.4125 30.9778C19.6066 31.5239 18.6207 31.7969 17.4633 31.7969L17.4375 31.8055ZM19.7695 25.9437C19.7009 25.3464 19.4437 24.8345 18.9893 24.4335C18.5349 24.0239 17.9519 23.8277 17.2232 23.8277C16.5288 23.8277 15.9543 24.041 15.4914 24.459C15.0284 24.8771 14.7627 25.372 14.6855 25.9522H19.7695V25.9437Z" fill="#3327FF"/>
<path d="M27.8798 31.7799C26.7396 31.7799 25.7365 31.4812 24.8706 30.901C24.0047 30.3208 23.4474 29.6297 23.1988 28.8277L25.4622 28.1707C25.6251 28.64 25.9337 29.0239 26.3795 29.314C26.8253 29.6126 27.3569 29.7577 27.9741 29.7577C28.4457 29.7577 28.8315 29.6638 29.123 29.4676C29.4145 29.2714 29.5688 29.041 29.5688 28.7679C29.5688 28.3498 29.2173 28.0427 28.5057 27.8294L26.0537 27.1127C24.4677 26.6604 23.6789 25.8072 23.6789 24.5615C23.6789 23.7679 24.0561 23.0939 24.8106 22.5307C25.565 21.9676 26.4738 21.6946 27.5369 21.6946C28.5486 21.6946 29.4402 21.9164 30.1946 22.3601C30.9577 22.8038 31.4892 23.384 31.7978 24.1178L29.5688 24.7662C29.1487 24.0154 28.4628 23.6485 27.5198 23.6485C27.1425 23.6485 26.8167 23.7338 26.5424 23.9045C26.2766 24.0836 26.1394 24.2799 26.1394 24.5103C26.1394 24.8601 26.4052 25.1075 26.9368 25.2696L29.3287 25.9522C30.1946 26.1997 30.8634 26.5239 31.3349 26.9164C31.8064 27.3004 32.0379 27.8891 32.0379 28.6741C32.0379 29.5785 31.6521 30.3294 30.8719 30.9181C30.0918 31.5068 29.0972 31.8055 27.8884 31.8055L27.8798 31.7799Z" fill="#3327FF"/>
<path d="M39.5843 21.6946C40.9303 21.6946 42.0534 22.1724 42.9622 23.1365C43.871 24.1007 44.3253 25.2952 44.3253 26.7457C44.3253 28.1792 43.871 29.3737 42.9622 30.3464C42.0534 31.3191 40.9303 31.7969 39.6014 31.7969C38.2897 31.7969 37.2524 31.3191 36.4808 30.355V35.5H33.9773V21.9591H36.4808V23.1109C37.2438 22.1638 38.2811 21.686 39.6014 21.686H39.5843V21.6946ZM39.1471 29.5785C39.9358 29.5785 40.5874 29.314 41.0932 28.785C41.6076 28.256 41.8562 27.5734 41.8562 26.7457C41.8562 25.9266 41.6076 25.2526 41.0932 24.7236C40.5874 24.1946 39.9358 23.9386 39.1471 23.9386C38.3755 23.9386 37.7239 24.2031 37.2009 24.7321C36.6694 25.2611 36.4122 25.9266 36.4122 26.7287C36.4122 27.5478 36.6694 28.2219 37.2009 28.7594C37.7325 29.2969 38.3755 29.5614 39.1471 29.5614V29.5785Z" fill="#3327FF"/>
<path d="M55.5043 21.9761V31.541H52.9924V30.3294C52.2379 31.3191 51.2091 31.8055 49.906 31.8055C48.6628 31.8055 47.7198 31.4301 47.0768 30.6707C46.4338 29.9113 46.108 28.8703 46.108 27.5478V21.9761H48.6114V27.0785C48.6114 27.8294 48.7914 28.4096 49.1429 28.8362C49.4944 29.2628 50.0088 29.4761 50.6776 29.4761C51.3891 29.4761 51.955 29.2287 52.3751 28.7168C52.7952 28.2133 53.0095 27.5222 53.0095 26.669V21.9591L55.5043 21.9761Z" fill="#3327FF"/>
<path d="M63.5712 21.6945C64.9172 21.6945 66.0404 22.1723 66.9491 23.1365C67.8579 24.1007 68.3123 25.2952 68.3123 26.7457C68.3123 28.1792 67.8579 29.3737 66.9491 30.3464C66.0404 31.3191 64.9172 31.7969 63.5884 31.7969C62.2767 31.7969 61.2393 31.3191 60.4677 30.3549V31.5239H57.9643V17.727H60.4677V23.1194C61.2307 22.1723 62.2681 21.6945 63.5884 21.6945H63.5712ZM63.134 29.5785C63.9227 29.5785 64.5743 29.314 65.0801 28.785C65.586 28.256 65.8432 27.5734 65.8432 26.7457C65.8432 25.9266 65.5945 25.2526 65.0801 24.7235C64.5657 24.1945 63.9227 23.9386 63.134 23.9386C62.3624 23.9386 61.7108 24.2031 61.1878 24.7321C60.6563 25.2611 60.3991 25.9266 60.3991 26.7287C60.3991 27.5478 60.6563 28.2218 61.1878 28.7594C61.7194 29.2969 62.3624 29.5614 63.134 29.5614V29.5785Z" fill="#3327FF"/>
<path d="M70.2156 17.7269H72.719V31.5238H70.2156V17.7269Z" fill="#3327FF"/>
<path d="M76.4579 20.6365C76.0378 20.6365 75.6863 20.5 75.4034 20.2099C75.1119 19.9198 74.9662 19.57 74.9662 19.1604C74.9662 18.7508 75.1119 18.4095 75.4034 18.1365C75.6949 17.8635 76.0464 17.7184 76.4579 17.7184C76.878 17.7184 77.2295 17.8549 77.5124 18.1365C77.8039 18.4095 77.9497 18.7508 77.9497 19.1604C77.9497 19.5785 77.8039 19.9283 77.5124 20.2014C77.2209 20.4744 76.8694 20.6194 76.4579 20.6194V20.6365ZM75.1548 21.9761H77.6753V31.5409H75.1548V21.9761Z" fill="#3327FF"/>
<path d="M83.821 27.8379L82.6979 29.0836V31.5239H80.1945V17.727H82.6979V25.9181L86.1615 21.9676H89.0936L85.3985 26.0888L89.4708 31.5324H86.6159L83.821 27.8379Z" fill="#3327FF"/>
<path d="M94.376 31.8055C93.03 31.8055 91.9069 31.3277 90.9981 30.355C90.0893 29.3823 89.6349 28.1877 89.6349 26.7543C89.6349 25.3038 90.0893 24.0922 90.9981 23.1365C91.9069 22.1724 93.0386 21.6946 94.3846 21.6946C95.7049 21.6946 96.7337 22.1638 97.471 23.1195V21.9676H100V31.5324H97.471V30.3635C96.7251 31.3277 95.6963 31.8055 94.3846 31.8055H94.376ZM94.8132 29.5529C95.5848 29.5529 96.2364 29.2884 96.7594 28.7509C97.2909 28.2133 97.5481 27.5393 97.5481 26.7202C97.5481 25.9181 97.2909 25.2526 96.7594 24.7236C96.2278 24.1946 95.5848 23.9301 94.8132 23.9301C94.0245 23.9301 93.3729 24.186 92.8671 24.715C92.3527 25.244 92.1041 25.9181 92.1041 26.7372C92.1041 27.5649 92.3527 28.2475 92.8671 28.7765C93.3815 29.3055 94.0245 29.57 94.8132 29.57V29.5529Z" fill="#3327FF"/>
</svg>
