<svg xmlns="http://www.w3.org/2000/svg" xmlns:xlink="http://www.w3.org/1999/xlink" version="1.1" x="0px" y="0px" viewBox="0 0 100 125" style="enable-background:new 0 0 100 100;" xml:space="preserve"><path d="M25,41.1c-0.6,1.8-1,3.7-1.2,5.6c0,0.1,0.1,0.3,0.2,0.3c0.1,0,0.1,0,0.2,0c0.1,0,0.1-0.1,0.1-0.2c0.2-1.9,0.6-3.7,1.1-5.5  c0-0.1,0-0.3-0.2-0.3C25.2,40.9,25,41,25,41.1z M29.7,32.7c-0.4,0.4-0.7,0.9-1.1,1.4c-0.1,0.1-0.1,0.3,0.1,0.3  c0.1,0.1,0.2,0.1,0.3,0c0,0,0,0,0.1-0.1c0.3-0.5,0.7-0.9,1-1.3c0.1-0.1,0.1-0.3,0-0.4S29.8,32.6,29.7,32.7z M29.9,68l-0.6,0.4  c0.5,0.5,1,1,1.5,1.5c0.1,0.1,0.3,0.1,0.5,0c0,0,0,0,0.1-0.1c0.1-0.2,0.1-0.4,0-0.5C30.8,68.9,30.4,68.4,29.9,68z M34.6,64.6  c2.9,2.7,6.5,4.6,10.5,5.4c0.1,0,0.2,0,0.3-0.1c0.1-0.1,0.1-0.1,0.2-0.2c0-0.2-0.1-0.4-0.3-0.4c-3.8-0.7-7.2-2.5-10-5.1L34.6,64.6z   M58.3,62.3c-6,4.2-13.9,3.7-19.2-0.8l-1,0.7c5.8,5,14.4,5.6,20.9,1.1c6.5-4.6,8.9-12.9,6.2-20l-1,0.7  C66.5,50.5,64.3,58.1,58.3,62.3z M37.6,64C37.7,64,37.7,64,37.6,64c0.1-0.2,0.1-0.3,0-0.4c-0.2-0.2-0.5-0.4-0.7-0.6l-0.4,0.3  c0.3,0.2,0.5,0.5,0.8,0.7C37.4,64.1,37.6,64.1,37.6,64z M51.2,23.8c-5.9-0.5-11.9,1.1-16.7,4.5c-1.3,0.9-2.6,2-3.7,3.1  c-0.1,0.1-0.1,0.3,0,0.4c0.1,0.1,0.3,0.1,0.4,0c1.1-1.1,2.3-2.2,3.6-3.1c4.8-3.3,10.6-4.9,16.4-4.4c0.1,0,0.1,0,0.2,0  c0.1,0,0.1-0.1,0.1-0.2C51.5,24,51.4,23.9,51.2,23.8z M46.7,29.3c0.1,0,0.2-0.1,0.3-0.1c0.2-0.2,0.3-0.4,0.3-0.7  c0-0.4-0.4-0.7-0.8-0.7c-3.5,0.4-6.9,1.7-9.8,3.8c-2.6,1.8-4.8,4.2-6.4,7c-0.2,0.4-0.1,0.8,0.3,1c0.4,0.2,0.8,0.1,1-0.3  c1.5-2.6,3.5-4.8,5.9-6.5C40.3,30.9,43.5,29.7,46.7,29.3z M56.3,27.9c0.2,0.1,0.3,0,0.4-0.1c0.1-0.1,0.2-0.1,0.2-0.2  c0.1-0.3-0.1-0.5-0.3-0.6c-5.1-1.7-10.7-1.6-15.8,0.3c-0.3,0.1-0.4,0.4-0.3,0.6c0.1,0.3,0.4,0.4,0.6,0.3  C46,26.3,51.4,26.2,56.3,27.9z M37,35.5c0.1-0.1,0.1-0.2,0-0.4c-0.1-0.1-0.2-0.1-0.4,0c-4.7,4.1-7,10.3-6.2,16.5  c0,0.1,0.1,0.2,0.3,0.2c0,0,0.1,0,0.1,0c0.1-0.1,0.1-0.1,0.1-0.2C30.2,45.5,32.4,39.5,37,35.5z M94.9,17.3c-0.2-0.3-0.7-0.4-1-0.2  c-12,8.4-19.8,10.7-23.4,11.3c-1.3,0.2-2.6-0.1-3.6-1c0,0,0,0,0,0c-4.6-3.8-10.5-6.1-16.6-6.4c-0.4,0-0.8,0.3-0.8,0.7  c0,0.4,0.3,0.8,0.7,0.8c5.7,0.3,11.3,2.4,15.7,6c0,0,0,0,0,0c1.4,1.1,3.1,1.6,4.8,1.3c1-0.2,2.4-0.5,4-1c-2.6,0.9-4.7,1.4-6.3,1.6  c-1.2,0.1-2.4-0.2-3.4-1c-2.6-2.1-5.5-3.7-8.8-4.7c-0.1,0-0.3,0-0.3,0.2c0,0.1,0,0.3,0.2,0.3c3.2,0.9,6.1,2.5,8.6,4.6  c1.1,0.9,2.4,1.3,3.7,1.1c2.1-0.2,4.9-0.9,8.6-2.5c-4.1,2.1-7.7,3.2-10.8,3.3c-0.9,0-1.8-0.3-2.5-0.9c-1.7-1.4-3.6-2.5-5.7-3.4  c-0.3-0.1-0.5,0-0.7,0.3c-0.1,0.3,0,0.5,0.3,0.7c2,0.8,3.8,1.9,5.4,3.2c0.9,0.7,2,1.1,3.2,1.1c1.1,0,2.3-0.2,3.5-0.5  c-2,0.7-3.9,1-5.5,0.8c-0.7-0.1-1.3-0.3-1.8-0.7c-3.2-2.6-7.1-4.2-11.2-4.6c-0.4,0-0.8,0.3-0.8,0.7c0,0.4,0.3,0.8,0.7,0.8  c3.8,0.4,7.4,1.9,10.4,4.3c0.7,0.6,1.6,1,2.6,1.1c1.7,0.2,3.6-0.1,5.6-0.7l-0.5,0.3c-2.8,1.2-5.1,1.5-7,0.9c-0.5-0.2-1-0.4-1.5-0.8  C55.3,30,47.5,29.1,41,32.2c-0.1,0.1-0.2,0.2-0.1,0.3c0.1,0.1,0.2,0.2,0.3,0.1c6.3-3,13.9-2.2,19.3,2.2c0.5,0.4,1,0.7,1.6,0.8  c1.6,0.5,3.4,0.4,5.5-0.2l-0.6,0.4c-2.9,1.6-5.1,1.8-6.6,0.7c-0.1-0.1-0.2-0.2-0.4-0.3c-0.2-0.1-0.3-0.3-0.5-0.4  c-6-4.6-14.1-4.8-20.3-0.5c-6.2,4.3-8.8,12-6.5,19.2c0.1,0.2,0.1,0.4,0.2,0.6c0.1,0.1,0.1,0.3,0.2,0.5c0.6,1.8-0.4,3.8-2.9,6  l-0.6,0.4c1.3-1.7,2-3.4,2.1-5.1c0-0.6-0.1-1.2-0.2-1.8c0-0.1-0.2-0.2-0.3-0.2c-0.1,0-0.2,0.2-0.2,0.3c0.2,0.5,0.2,1.1,0.2,1.6  c-0.1,2-1.2,4.1-3.3,6.3l-0.5,0.3c1.3-1.7,2.1-3.4,2.6-5c0.2-0.9,0.2-1.9-0.1-2.8c-1.5-4.5-1.4-9.4,0.3-13.8c0.2-0.4,0-0.8-0.4-1  c-0.4-0.2-0.8,0-1,0.4c-1.9,4.8-2,10-0.4,14.8c0.2,0.6,0.2,1.3,0.1,2c-0.4,1.6-1.3,3.3-2.6,4.9c0.7-1.1,1.2-2.1,1.7-3.1  c0.4-1.1,0.5-2.3,0.1-3.4c-3.3-9.4,0.1-20,8.3-25.7c0.2-0.2,0.3-0.5,0.1-0.7c-0.2-0.2-0.5-0.3-0.7-0.1c-8.6,6-12.1,17-8.7,26.9  c0.3,0.9,0.3,1.8-0.1,2.7c-1.1,2.8-3.4,5.9-6.8,9c2.8-2.9,4.4-5.4,5.3-7.3c0.6-1.2,0.7-2.6,0.2-3.9c-0.9-2.5-1.4-5.1-1.4-7.8  c0-0.1-0.1-0.2-0.3-0.2c-0.1,0-0.2,0.1-0.2,0.3c0,2.7,0.5,5.4,1.4,8c0.4,1.2,0.3,2.4-0.2,3.5c-0.7,1.4-1.9,3.2-3.6,5.3  c1.1-1.4,1.8-2.5,2.3-3.4c0.9-1.5,1-3.3,0.4-5c-4-11.2,0-23.8,9.7-30.6c0.8-0.6,1.7-1.1,2.6-1.6c0.4-0.2,0.5-0.7,0.3-1  c-0.2-0.4-0.7-0.5-1-0.3c-0.9,0.5-1.8,1.1-2.7,1.7c-10.3,7.2-14.5,20.5-10.3,32.3c0.5,1.3,0.3,2.6-0.3,3.7  c-1.8,3.2-6.6,9.7-18.6,18.1c-0.3,0.2-0.4,0.7-0.2,1s0.7,0.4,1,0.2l90.1-63.1C95,18.1,95.1,17.6,94.9,17.3z M34.1,59  c0.6-1.3,0.8-2.6,0.3-3.8c-0.1-0.2-0.1-0.3-0.2-0.5c-0.1-0.2-0.1-0.4-0.2-0.6c-2.1-6.7,0.3-13.8,6-17.9c5.7-4,13.3-3.8,18.8,0.4  c0.2,0.1,0.3,0.3,0.5,0.4c0.1,0.1,0.3,0.2,0.4,0.3c1,0.8,2.2,1.1,3.7,1L34.1,59z M39.5,24.3c2.2-0.8,4.5-1.4,6.9-1.6  c0.1,0,0.3-0.1,0.4-0.1c0.2-0.2,0.3-0.4,0.3-0.7c0-0.4-0.4-0.7-0.8-0.7c-2.5,0.2-4.9,0.8-7.2,1.7c-0.4,0.1-0.6,0.6-0.4,1  C38.7,24.3,39.1,24.5,39.5,24.3z M59.8,64.4c-0.8,0.5-1.6,1-2.5,1.5c-0.1,0.1-0.2,0.2-0.1,0.3c0.1,0.1,0.2,0.2,0.3,0.1  c0.9-0.4,1.7-0.9,2.5-1.5c4.5-3.2,7.4-8.1,8-13.6c0-0.1-0.1-0.3-0.2-0.3c-0.1,0-0.3,0.1-0.3,0.2C67,56.5,64.1,61.3,59.8,64.4z   M67.7,46.9c0,0,0.1,0,0.1,0c0.1-0.1,0.1-0.1,0.1-0.2c-0.2-1.5-0.6-3-1.2-4.4l-0.4,0.3c0.5,1.3,0.9,2.8,1.1,4.2  C67.4,46.8,67.6,46.9,67.7,46.9z M31,67.2c1.8,1.9,4,3.5,6.3,4.7c0.2,0.1,0.4,0.1,0.5,0c0.1,0,0.1-0.1,0.2-0.2  c0.1-0.2,0-0.5-0.2-0.7c-2.2-1.2-4.2-2.6-6-4.4L31,67.2z M40.8,72.4c-0.3-0.1-0.5,0-0.6,0.3c-0.1,0.3,0,0.5,0.3,0.6  c0.7,0.3,1.5,0.5,2.2,0.7c0.1,0,0.3,0,0.4-0.1c0.1-0.1,0.2-0.2,0.2-0.3c0.1-0.3-0.1-0.5-0.4-0.6C42.2,72.9,41.5,72.7,40.8,72.4z   M53.9,75.7c-7.3,1.3-14.9-0.5-20.9-5c-0.2-0.1-0.4-0.1-0.5,0.1c-0.1,0.2-0.1,0.4,0.1,0.5c6.1,4.6,13.9,6.4,21.4,5.1  c0.1,0,0.1,0,0.1-0.1c0.1-0.1,0.2-0.2,0.2-0.4C54.3,75.8,54.1,75.7,53.9,75.7z M76.1,44.9c-0.2,0-0.3,0.2-0.3,0.4  c1.5,10.1-2.8,20.1-11.2,25.9c-1.8,1.2-3.6,2.2-5.6,3c-0.2,0.1-0.3,0.3-0.2,0.5s0.3,0.3,0.5,0.2c2-0.8,4-1.8,5.8-3.1  c8.6-6,13-16.2,11.5-26.7C76.5,45,76.3,44.9,76.1,44.9z M96.1,19.4c-0.2-0.2-0.5-0.3-0.7-0.1L5.3,82.5c-0.2,0.2-0.3,0.5-0.1,0.7  c0.2,0.2,0.5,0.3,0.7,0.1l90.1-63.1C96.2,20,96.2,19.7,96.1,19.4z M69.5,40.2c2.4,5.4,2.6,11.6,0.4,17.2c-0.2,0.4,0,0.8,0.4,1  c0.2,0.1,0.5,0.1,0.7-0.1c0.1-0.1,0.2-0.2,0.3-0.3c2.4-6.1,2.2-12.8-0.5-18.7L69.5,40.2z M75.4,42c0,0,0.1,0,0.1-0.1  c0.1-0.1,0.2-0.3,0.1-0.4c-0.4-1.5-1-3-1.7-4.4l-0.6,0.4c0.7,1.4,1.2,2.8,1.6,4.2C75,41.9,75.2,42,75.4,42z M68,41.3  c3.7,8.7,1,19.1-7.1,24.7c-3.2,2.2-6.9,3.5-10.7,3.7c-0.2,0-0.4,0.2-0.4,0.4c0,0.2,0.2,0.4,0.4,0.4c4-0.2,7.8-1.5,11.1-3.8  c8.4-5.9,11.2-16.7,7.3-25.8L68,41.3z M71.5,38.8c5,10.6,1.8,23.6-8.1,30.6c-4.9,3.4-10.8,4.9-16.7,4.3c-0.3,0-0.5,0.2-0.6,0.4  c0,0.3,0.2,0.5,0.4,0.6c6.1,0.7,12.3-0.9,17.4-4.5c10.4-7.3,13.7-20.9,8.4-32L71.5,38.8z M32.5,66.1c8,7.9,20.7,9.2,30.3,2.6  c2.5-1.8,4.6-4,6.3-6.5c0.2-0.3,0.1-0.8-0.2-1c-0.3-0.2-0.8-0.1-1,0.2c-1.5,2.4-3.5,4.4-5.9,6.1c-8.8,6.2-20.7,5-28.1-2.2L32.5,66.1  z M55.8,67c0.1-0.1,0.1-0.2,0.1-0.3c0-0.1-0.2-0.2-0.3-0.1c-4.7,1.7-9.9,1.5-14.4-0.7c-0.1-0.1-0.3,0-0.3,0.1  c-0.1,0.1,0,0.3,0.1,0.3C45.6,68.5,51,68.8,55.8,67C55.8,67,55.8,67,55.8,67z M17.6,12h0.7v0.7c0,0.5,0.4,0.9,0.9,0.9  c0.5,0,0.9-0.4,0.9-0.9V12h0.7c0.5,0,0.9-0.4,0.9-0.9c0-0.5-0.4-0.9-0.9-0.9h-0.7V9.6c0-0.5-0.4-0.9-0.9-0.9c-0.5,0-0.9,0.4-0.9,0.9  v0.7h-0.7c-0.5,0-0.9,0.4-0.9,0.9C16.7,11.6,17.1,12,17.6,12z M14.4,25.6h0.4v0.5c0,0.4,0.3,0.8,0.8,0.8c0.4,0,0.7-0.3,0.7-0.8v-0.5  h0.5c0.4,0,0.8-0.3,0.8-0.8s-0.3-0.8-0.8-0.8h-0.5v-0.4c0-0.4-0.3-0.8-0.7-0.8c-0.4,0-0.8,0.3-0.8,0.8v0.4h-0.4  c-0.4,0-0.8,0.3-0.8,0.8S14,25.6,14.4,25.6z M90.6,66.6h-0.7v-0.7c0-0.5-0.4-0.9-0.9-0.9c-0.5,0-0.9,0.4-0.9,0.9v0.7h-0.7  c-0.5,0-0.9,0.4-0.9,0.9c0,0.5,0.4,0.9,0.9,0.9h0.7V69c0,0.5,0.4,0.9,0.9,0.9c0.5,0,0.9-0.4,0.9-0.9v-0.7h0.7c0.5,0,0.9-0.4,0.9-0.9  C91.5,67,91.1,66.6,90.6,66.6z M52.1,86.2h-0.5v-0.4c0-0.4-0.3-0.8-0.8-0.8s-0.8,0.3-0.8,0.8v0.4h-0.4c-0.4,0-0.8,0.3-0.8,0.8  s0.3,0.8,0.8,0.8h0.4v0.5c0,0.4,0.3,0.8,0.8,0.8s0.8-0.3,0.8-0.8v-0.5h0.5c0.4,0,0.8-0.3,0.8-0.8S52.5,86.2,52.1,86.2z M75.6,19h0.4  v0.5c0,0.4,0.3,0.8,0.8,0.8s0.8-0.3,0.8-0.8V19H78c0.4,0,0.8-0.3,0.8-0.8s-0.3-0.8-0.8-0.8h-0.5v-0.4c0-0.4-0.3-0.8-0.8-0.8  s-0.8,0.3-0.8,0.8v0.4h-0.4c-0.4,0-0.8,0.3-0.8,0.8S75.2,19,75.6,19z"/><text x="0" y="115" fill="#000000" font-size="5px" font-weight="bold" font-family="'Helvetica Neue', Helvetica, Arial-Unicode, Arial, Sans-serif">Created by Hrvoje Tomic</text><text x="0" y="120" fill="#000000" font-size="5px" font-weight="bold" font-family="'Helvetica Neue', Helvetica, Arial-Unicode, Arial, Sans-serif">from the Noun Project</text></svg>