<?xml version="1.0" encoding="utf-8"?>
<!-- Generator: Adobe Illustrator 23.0.6, SVG Export Plug-In . SVG Version: 6.00 Build 0)  -->
<svg version="1.1" id="Layer_1" xmlns="http://www.w3.org/2000/svg" xmlns:xlink="http://www.w3.org/1999/xlink" x="0px" y="0px"
	 viewBox="0 0 500 500" style="enable-background:new 0 0 500 500;" xml:space="preserve">
<style type="text/css">
	.st0{display:none;fill:#231F20;}
	.st1{fill:none;stroke:#C2B59B;stroke-miterlimit:10;}
</style>
<rect class="st0" width="505.2" height="500"/>
<g>
	<path d="M114.6,235.7h-3.1l-0.5-14.3l-0.2-5.5l-1.1,3.2l-3.4,9.1h-2.2l-3.2-8.8l-1.1-3.6l-0.1,5.7l-0.4,14.1h-3l1.1-23h3.7l3.1,8.6
		l1,2.9l1-2.9l3.3-8.6h3.8L114.6,235.7z"/>
	<path d="M117.6,227.8c0-0.4,0-0.8,0-1.1s0-0.6,0.1-0.8H130c0-1.8-0.5-3.2-1.5-4.1s-2.5-1.4-4.4-1.4c-1,0-2.1,0.1-3,0.2
		s-1.9,0.3-2.6,0.5v-2.6c0.8-0.2,1.8-0.4,2.8-0.6s2.1-0.2,3.3-0.2c1.5,0,2.8,0.2,3.9,0.6s2,1,2.7,1.8s1.2,1.7,1.5,2.9
		s0.5,2.4,0.5,3.8c0,1.2-0.2,2.4-0.5,3.5s-0.9,2.1-1.5,2.9s-1.5,1.5-2.5,2s-2.1,0.7-3.4,0.7c-1.2,0-2.3-0.2-3.3-0.6
		s-1.8-0.9-2.4-1.6s-1.2-1.6-1.5-2.6S117.6,229,117.6,227.8z M120.8,228.2c0,0.8,0,1.5,0.2,2.2s0.5,1.2,0.9,1.7s0.9,0.9,1.5,1.1
		s1.3,0.4,2,0.4c0.7,0,1.3-0.1,1.8-0.4s1-0.6,1.4-1.1s0.7-1,1-1.7s0.4-1.4,0.4-2.2H120.8z"/>
	<path d="M138.1,218h2.7l0.1,2.8c0.5-0.6,1-1.1,1.5-1.5s1-0.7,1.4-1s0.9-0.4,1.4-0.5s1-0.1,1.5-0.1c1.8,0,3.2,0.5,4.1,1.6
		s1.4,2.7,1.4,4.8v11.5h-3.1v-11.3c0-1.4-0.3-2.4-0.8-3.1s-1.3-1-2.3-1c-0.4,0-0.7,0.1-1.1,0.2s-0.7,0.3-1.1,0.6s-0.8,0.6-1.3,1.1
		s-1,1.1-1.5,1.8v11.7h-3.1V218z"/>
	<path d="M163.9,220.6h-5.2V218h8.3v15.1h5.3v2.5h-14.2v-2.5h5.8V220.6z M165,210.6c0.3,0,0.7,0.1,0.9,0.2s0.5,0.3,0.8,0.5
		s0.4,0.5,0.5,0.8s0.2,0.6,0.2,0.9c0,0.3-0.1,0.6-0.2,0.9s-0.3,0.6-0.5,0.8s-0.5,0.4-0.8,0.5s-0.6,0.2-0.9,0.2s-0.7-0.1-0.9-0.2
		s-0.5-0.3-0.8-0.5s-0.4-0.5-0.5-0.8s-0.2-0.6-0.2-0.9c0-0.3,0.1-0.7,0.2-0.9s0.3-0.5,0.5-0.8s0.5-0.4,0.8-0.5
		S164.7,210.6,165,210.6z"/>
	<path d="M190.3,235.7V223c0-0.6,0-1-0.1-1.4s-0.1-0.6-0.2-0.8s-0.2-0.3-0.3-0.4s-0.3-0.1-0.5-0.1c-0.2,0-0.5,0.1-0.7,0.2
		s-0.4,0.4-0.6,0.7s-0.5,0.7-0.8,1.3s-0.6,1.2-1,1.9v11.3h-2.8v-12.3c0-0.6,0-1.2-0.1-1.6s-0.1-0.7-0.2-0.9s-0.2-0.4-0.3-0.5
		s-0.3-0.1-0.5-0.1c-0.2,0-0.4,0.1-0.6,0.2s-0.4,0.3-0.6,0.6s-0.5,0.7-0.8,1.2s-0.6,1.2-1,2v11.3h-2.8V218h2.3l0.1,3.4
		c0.3-0.7,0.6-1.2,0.9-1.7s0.6-0.8,0.9-1.1s0.6-0.5,1-0.6s0.7-0.2,1.2-0.2c0.9,0,1.7,0.3,2.2,0.9s0.7,1.6,0.7,2.9
		c0.3-0.6,0.6-1.2,0.8-1.6s0.6-0.9,0.9-1.2s0.7-0.6,1-0.7s0.8-0.3,1.3-0.3c2.2,0,3.3,1.7,3.3,5.1v12.8H190.3z"/>
	<path d="M228.6,235.7l-0.1-2.4c-1,0.9-1.9,1.6-2.9,2.1s-2,0.6-3.1,0.6c-1,0-1.9-0.1-2.6-0.4s-1.3-0.6-1.8-1.1s-0.8-1-1-1.6
		s-0.3-1.3-0.3-2c0-1.8,0.7-3.2,2-4.2s3.3-1.5,5.8-1.5h3.7v-1.5c0-1-0.3-1.9-1-2.5s-1.7-0.9-3.1-0.9c-1,0-2,0.1-2.9,0.3
		s-2,0.5-3,0.9v-2.8c0.4-0.1,0.8-0.3,1.3-0.4s1-0.3,1.5-0.4s1.1-0.2,1.7-0.3s1.2-0.1,1.7-0.1c1.1,0,2,0.1,2.9,0.4s1.6,0.6,2.2,1.1
		s1,1.1,1.4,1.8s0.5,1.6,0.5,2.6v12.2H228.6z M228.3,227.6h-3.9c-0.8,0-1.4,0.1-2,0.2s-1,0.4-1.4,0.7s-0.6,0.6-0.8,1
		s-0.3,0.8-0.3,1.3c0,0.3,0.1,0.7,0.2,1s0.3,0.6,0.5,0.8s0.5,0.4,0.9,0.6s0.8,0.2,1.4,0.2c0.7,0,1.5-0.2,2.4-0.6s1.9-1.1,2.9-2
		V227.6z"/>
	<path d="M236.2,227.2c0-1.5,0.2-2.8,0.6-4s1-2.2,1.7-3s1.7-1.4,2.7-1.8s2.2-0.6,3.5-0.6c0.6,0,1.1,0,1.7,0.1s1.1,0.2,1.6,0.3v-7.4
		h3.1v24.8h-2.7l-0.1-3.3c-0.9,1.2-1.8,2.2-2.8,2.8s-2.1,0.9-3.2,0.9c-1,0-1.9-0.2-2.7-0.6s-1.4-1-1.9-1.8s-0.9-1.7-1.2-2.8
		S236.2,228.5,236.2,227.2z M239.3,227c0,2.1,0.3,3.7,0.9,4.8s1.5,1.6,2.7,1.6c0.8,0,1.6-0.3,2.5-1s1.8-1.7,2.7-3.1v-8.2
		c-0.5-0.2-1.1-0.4-1.7-0.5s-1.2-0.2-1.8-0.2c-1.7,0-3,0.5-3.9,1.6S239.3,224.7,239.3,227z"/>
	<path d="M262.9,220.6h-5.2V218h8.3v15.1h5.3v2.5h-14.2v-2.5h5.8V220.6z"/>
	<path d="M289.3,235.7V223c0-0.6,0-1-0.1-1.4s-0.1-0.6-0.2-0.8s-0.2-0.3-0.3-0.4s-0.3-0.1-0.5-0.1c-0.2,0-0.5,0.1-0.7,0.2
		s-0.4,0.4-0.6,0.7s-0.5,0.7-0.8,1.3s-0.6,1.2-1,1.9v11.3h-2.8v-12.3c0-0.6,0-1.2-0.1-1.6s-0.1-0.7-0.2-0.9s-0.2-0.4-0.3-0.5
		s-0.3-0.1-0.5-0.1c-0.2,0-0.4,0.1-0.6,0.2s-0.4,0.3-0.6,0.6s-0.5,0.7-0.8,1.2s-0.6,1.2-1,2v11.3h-2.8V218h2.3l0.1,3.4
		c0.3-0.7,0.6-1.2,0.9-1.7s0.6-0.8,0.9-1.1s0.6-0.5,1-0.6s0.7-0.2,1.2-0.2c0.9,0,1.7,0.3,2.2,0.9s0.7,1.6,0.7,2.9
		c0.3-0.6,0.6-1.2,0.8-1.6s0.6-0.9,0.9-1.2s0.7-0.6,1-0.7s0.8-0.3,1.3-0.3c2.2,0,3.3,1.7,3.3,5.1v12.8H289.3z"/>
	<path d="M323.1,217.1l-4.1,14.4c-0.3,1-0.4,1.6-0.4,1.7c0,0.2,0.1,0.4,0.2,0.5s0.3,0.2,0.5,0.2c0.2,0,0.5-0.1,0.7-0.3
		c0.8-0.6,1.6-1.5,2.4-2.6l0.7,0.5c-0.9,1.4-2,2.6-3.3,3.6c-0.9,0.7-1.8,1.1-2.7,1.1c-0.6,0-1-0.2-1.4-0.5s-0.5-0.8-0.5-1.3
		s0.2-1.3,0.5-2.5l2.7-9.2c0.4-1.5,0.7-2.4,0.7-2.8c0-0.3-0.1-0.5-0.3-0.7s-0.5-0.3-0.9-0.3c-0.3,0-0.9,0.1-1.9,0.2v-0.8
		L323.1,217.1z M322.8,209c0.6,0,1.1,0.2,1.5,0.6s0.6,0.9,0.6,1.5c0,0.6-0.2,1-0.6,1.4s-0.9,0.6-1.4,0.6s-1-0.2-1.4-0.6
		s-0.6-0.9-0.6-1.4c0-0.6,0.2-1.1,0.6-1.5S322.3,209,322.8,209z"/>
	<path d="M340.3,227.5h-10.5v-2.9h10.5V227.5z"/>
	<path d="M346.8,227.2c0-1.5,0.2-2.8,0.6-4s1-2.2,1.8-3s1.7-1.4,2.7-1.8s2.2-0.6,3.5-0.6c0.6,0,1.1,0,1.7,0.1s1.1,0.2,1.6,0.3v-7.4
		h3.1v24.8h-2.7l-0.1-3.3c-0.9,1.2-1.8,2.2-2.8,2.8s-2.1,0.9-3.2,0.9c-1,0-1.9-0.2-2.7-0.6s-1.4-1-1.9-1.8s-0.9-1.7-1.2-2.8
		S346.8,228.5,346.8,227.2z M349.9,227c0,2.1,0.3,3.7,0.9,4.8s1.5,1.6,2.7,1.6c0.8,0,1.6-0.3,2.5-1s1.8-1.7,2.7-3.1v-8.2
		c-0.5-0.2-1.1-0.4-1.7-0.5s-1.2-0.2-1.8-0.2c-1.7,0-3,0.5-3.9,1.6S349.9,224.7,349.9,227z"/>
	<path d="M373.5,220.6h-5.2V218h8.3v15.1h5.3v2.5h-14.2v-2.5h5.8V220.6z M374.6,210.6c0.3,0,0.7,0.1,0.9,0.2s0.5,0.3,0.8,0.5
		s0.4,0.5,0.5,0.8s0.2,0.6,0.2,0.9c0,0.3-0.1,0.6-0.2,0.9s-0.3,0.6-0.5,0.8s-0.5,0.4-0.8,0.5s-0.6,0.2-0.9,0.2s-0.7-0.1-0.9-0.2
		s-0.5-0.3-0.8-0.5s-0.4-0.5-0.5-0.8s-0.2-0.6-0.2-0.9c0-0.3,0.1-0.7,0.2-0.9s0.3-0.5,0.5-0.8s0.5-0.4,0.8-0.5
		S374.3,210.6,374.6,210.6z"/>
	<path d="M388,218h2.8l0.1,3.3c1-1.3,2.1-2.2,3.1-2.7s2-0.8,3.1-0.8c1.8,0,3.2,0.6,4.2,1.8s1.4,2.9,1.3,5.3h-3.1
		c0-1.5-0.2-2.7-0.7-3.4s-1.2-1-2.1-1c-0.4,0-0.8,0.1-1.2,0.2s-0.8,0.4-1.3,0.7s-0.9,0.7-1.4,1.2s-1,1.1-1.6,1.8v11.3H388V218z"/>
	<path d="M110.6,278.9h-3.1l-0.5-14.3l-0.2-5.5l-1.1,3.2l-3.4,9.1h-2.2l-3.2-8.8l-1.1-3.6l-0.1,5.7l-0.4,14.1h-3l1.1-23h3.7l3.1,8.6
		l1,2.9l1-2.9l3.3-8.6h3.8L110.6,278.9z"/>
	<path d="M113.5,271c0-0.4,0-0.8,0-1.1s0-0.6,0.1-0.8H126c0-1.8-0.5-3.2-1.5-4.1s-2.5-1.4-4.4-1.4c-1,0-2.1,0.1-3,0.2
		s-1.9,0.3-2.6,0.5v-2.6c0.8-0.2,1.8-0.4,2.8-0.6s2.1-0.2,3.3-0.2c1.5,0,2.8,0.2,3.9,0.6s2,1,2.7,1.8s1.2,1.7,1.5,2.9
		s0.5,2.4,0.5,3.8c0,1.2-0.2,2.4-0.5,3.5s-0.9,2.1-1.5,2.9s-1.5,1.5-2.5,2s-2.1,0.7-3.4,0.7c-1.2,0-2.3-0.2-3.3-0.6
		s-1.8-0.9-2.4-1.6s-1.2-1.6-1.5-2.6S113.5,272.2,113.5,271z M116.7,271.4c0,0.8,0,1.5,0.2,2.2s0.5,1.2,0.9,1.7s0.9,0.9,1.5,1.1
		s1.3,0.4,2,0.4c0.7,0,1.3-0.1,1.8-0.4s1-0.6,1.4-1.1s0.7-1,1-1.7s0.4-1.4,0.4-2.2H116.7z"/>
	<path d="M134.1,261.2h2.7l0.1,2.8c0.5-0.6,1-1.1,1.5-1.5s1-0.7,1.4-1s0.9-0.4,1.4-0.5s1-0.1,1.5-0.1c1.8,0,3.2,0.5,4.1,1.6
		s1.4,2.7,1.4,4.8v11.5h-3.1v-11.3c0-1.4-0.3-2.4-0.8-3.1s-1.3-1-2.3-1c-0.4,0-0.7,0.1-1.1,0.2s-0.7,0.3-1.1,0.6s-0.8,0.6-1.3,1.1
		s-1,1.1-1.5,1.8v11.7h-3.1V261.2z"/>
	<path d="M174.4,261.2h2.8l0.1,3.3c1-1.3,2.1-2.2,3.1-2.7s2-0.8,3.1-0.8c1.8,0,3.2,0.6,4.2,1.8s1.4,2.9,1.3,5.3h-3.1
		c0-1.5-0.2-2.7-0.7-3.4s-1.2-1-2.1-1c-0.4,0-0.8,0.1-1.2,0.2s-0.8,0.4-1.3,0.7s-0.9,0.7-1.4,1.2s-1,1.1-1.6,1.8v11.3h-3.1V261.2z"
		/>
	<path d="M199.4,263.8h-5.2v-2.5h8.3v15.1h5.3v2.5h-14.2v-2.5h5.8V263.8z M200.5,253.8c0.3,0,0.7,0.1,0.9,0.2s0.5,0.3,0.8,0.5
		s0.4,0.5,0.5,0.8s0.2,0.6,0.2,0.9c0,0.3-0.1,0.6-0.2,0.9s-0.3,0.6-0.5,0.8s-0.5,0.4-0.8,0.5s-0.6,0.2-0.9,0.2s-0.7-0.1-0.9-0.2
		s-0.5-0.3-0.8-0.5s-0.4-0.5-0.5-0.8s-0.2-0.6-0.2-0.9c0-0.3,0.1-0.7,0.2-0.9s0.3-0.5,0.5-0.8s0.5-0.4,0.8-0.5
		S200.2,253.8,200.5,253.8z"/>
	<path d="M228.9,261.2l-6,15.8c-0.6,1.6-1.3,3-1.9,4.1c-0.7,1.2-1.4,2.1-2.2,2.9s-1.6,1.3-2.6,1.6s-2,0.5-3.1,0.5
		c-0.3,0-0.6,0-0.8,0s-0.5,0-0.8-0.1v-2.8c0.3,0,0.5,0.1,0.8,0.1s0.6,0,1,0c0.6,0,1.1-0.1,1.6-0.2s0.9-0.4,1.4-0.8s0.8-0.8,1.2-1.4
		c0.4-0.6,0.8-1.3,1.2-2.1l-7-17.6h3.5l4.5,11.7l0.9,2.7l1-2.8l4.1-11.6H228.9z"/>
	<path d="M244.4,278.9l-0.1-2.4c-1,0.9-1.9,1.6-2.9,2.1s-2,0.6-3.1,0.6c-1,0-1.9-0.1-2.6-0.4s-1.3-0.6-1.8-1.1s-0.8-1-1-1.6
		s-0.3-1.3-0.3-2c0-1.8,0.7-3.2,2-4.2s3.3-1.5,5.8-1.5h3.7V267c0-1-0.3-1.9-1-2.5s-1.7-0.9-3.1-0.9c-1,0-2,0.1-2.9,0.3s-2,0.5-3,0.9
		V262c0.4-0.1,0.8-0.3,1.3-0.4s1-0.3,1.5-0.4s1.1-0.2,1.7-0.3s1.2-0.1,1.7-0.1c1.1,0,2,0.1,2.9,0.4s1.6,0.6,2.2,1.1s1,1.1,1.4,1.8
		s0.5,1.6,0.5,2.6v12.2H244.4z M244,270.8h-3.9c-0.8,0-1.4,0.1-2,0.2s-1,0.4-1.4,0.7s-0.6,0.6-0.8,1s-0.3,0.8-0.3,1.3
		c0,0.3,0.1,0.7,0.2,1s0.3,0.6,0.5,0.8s0.5,0.4,0.9,0.6s0.8,0.2,1.4,0.2c0.7,0,1.5-0.2,2.4-0.6s1.9-1.1,2.9-2V270.8z"/>
	<path d="M267.1,278.9h-14.2v-2.2l10-12.9h-9.7v-2.6h13.4v2.4l-9.8,12.7h10.4V278.9z"/>
	<path d="M278.6,263.8h-5.2v-2.5h8.3v15.1h5.3v2.5h-14.2v-2.5h5.8V263.8z M279.7,253.8c0.3,0,0.7,0.1,0.9,0.2s0.5,0.3,0.8,0.5
		s0.4,0.5,0.5,0.8s0.2,0.6,0.2,0.9c0,0.3-0.1,0.6-0.2,0.9s-0.3,0.6-0.5,0.8s-0.5,0.4-0.8,0.5s-0.6,0.2-0.9,0.2s-0.7-0.1-0.9-0.2
		s-0.5-0.3-0.8-0.5s-0.4-0.5-0.5-0.8s-0.2-0.6-0.2-0.9c0-0.3,0.1-0.7,0.2-0.9s0.3-0.5,0.5-0.8s0.5-0.4,0.8-0.5
		S279.3,253.8,279.7,253.8z"/>
	<path d="M308.1,261.2l-6,15.8c-0.6,1.6-1.3,3-1.9,4.1c-0.7,1.2-1.4,2.1-2.2,2.9s-1.6,1.3-2.6,1.6s-2,0.5-3.1,0.5
		c-0.3,0-0.6,0-0.8,0s-0.5,0-0.8-0.1v-2.8c0.3,0,0.5,0.1,0.8,0.1s0.6,0,1,0c0.6,0,1.1-0.1,1.6-0.2s0.9-0.4,1.4-0.8s0.8-0.8,1.2-1.4
		c0.4-0.6,0.8-1.3,1.2-2.1l-7-17.6h3.5l4.5,11.7l0.9,2.7l1-2.8l4.1-11.6H308.1z"/>
	<path d="M327.9,261.2l-6,15.8c-0.6,1.6-1.3,3-1.9,4.1c-0.7,1.2-1.4,2.1-2.2,2.9s-1.6,1.3-2.6,1.6s-2,0.5-3.1,0.5
		c-0.3,0-0.6,0-0.8,0s-0.5,0-0.8-0.1v-2.8c0.3,0,0.5,0.1,0.8,0.1s0.6,0,1,0c0.6,0,1.1-0.1,1.6-0.2s0.9-0.4,1.4-0.8s0.8-0.8,1.2-1.4
		c0.4-0.6,0.8-1.3,1.2-2.1l-7-17.6h3.5l4.5,11.7l0.9,2.7l1-2.8l4.1-11.6H327.9z"/>
	<path d="M343.3,278.9l-0.1-2.4c-1,0.9-1.9,1.6-2.9,2.1s-2,0.6-3.1,0.6c-1,0-1.9-0.1-2.6-0.4s-1.3-0.6-1.8-1.1s-0.8-1-1-1.6
		s-0.3-1.3-0.3-2c0-1.8,0.7-3.2,2-4.2s3.3-1.5,5.8-1.5h3.7V267c0-1-0.3-1.9-1-2.5s-1.7-0.9-3.1-0.9c-1,0-2,0.1-2.9,0.3s-2,0.5-3,0.9
		V262c0.4-0.1,0.8-0.3,1.3-0.4s1-0.3,1.5-0.4s1.1-0.2,1.7-0.3s1.2-0.1,1.7-0.1c1.1,0,2,0.1,2.9,0.4s1.6,0.6,2.2,1.1s1,1.1,1.4,1.8
		s0.5,1.6,0.5,2.6v12.2H343.3z M343,270.8h-3.9c-0.8,0-1.4,0.1-2,0.2s-1,0.4-1.4,0.7s-0.6,0.6-0.8,1s-0.3,0.8-0.3,1.3
		c0,0.3,0.1,0.7,0.2,1s0.3,0.6,0.5,0.8s0.5,0.4,0.9,0.6s0.8,0.2,1.4,0.2c0.7,0,1.5-0.2,2.4-0.6s1.9-1.1,2.9-2V270.8z"/>
	<path d="M366,278.6c-0.7,0.2-1.4,0.3-2.1,0.4s-1.5,0.1-2.3,0.1c-2.2,0-3.9-0.5-5-1.5s-1.6-2.5-1.6-4.6v-9.2h-4.9v-2.6h4.9v-4.9
		l3.1-0.8v5.6h7.9v2.6h-7.9v9c0,1.3,0.3,2.2,1,2.8s1.7,0.9,3,0.9c0.6,0,1.2,0,1.8-0.1s1.4-0.2,2.1-0.4V278.6z"/>
	<path d="M370.7,270.4c0-1.5,0.2-2.8,0.6-4s1-2.2,1.7-3s1.7-1.4,2.7-1.8s2.2-0.6,3.5-0.6c0.6,0,1.1,0,1.7,0.1s1.1,0.2,1.6,0.3V254
		h3.1v24.8h-2.7l-0.1-3.3c-0.9,1.2-1.8,2.2-2.8,2.8s-2.1,0.9-3.2,0.9c-1,0-1.9-0.2-2.7-0.6s-1.4-1-1.9-1.8s-0.9-1.7-1.2-2.8
		S370.7,271.7,370.7,270.4z M373.8,270.2c0,2.1,0.3,3.7,0.9,4.8s1.5,1.6,2.7,1.6c0.8,0,1.6-0.3,2.5-1s1.8-1.7,2.7-3.1v-8.2
		c-0.5-0.2-1.1-0.4-1.7-0.5s-1.2-0.2-1.8-0.2c-1.7,0-3,0.5-3.9,1.6S373.8,267.9,373.8,270.2z"/>
	<path d="M402.7,278.9l-0.1-2.4c-1,0.9-1.9,1.6-2.9,2.1s-2,0.6-3.1,0.6c-1,0-1.9-0.1-2.6-0.4s-1.3-0.6-1.8-1.1s-0.8-1-1-1.6
		s-0.3-1.3-0.3-2c0-1.8,0.7-3.2,2-4.2s3.3-1.5,5.8-1.5h3.7V267c0-1-0.3-1.9-1-2.5s-1.7-0.9-3.1-0.9c-1,0-2,0.1-2.9,0.3s-2,0.5-3,0.9
		V262c0.4-0.1,0.8-0.3,1.3-0.4s1-0.3,1.5-0.4s1.1-0.2,1.7-0.3s1.2-0.1,1.7-0.1c1.1,0,2,0.1,2.9,0.4s1.6,0.6,2.2,1.1s1,1.1,1.4,1.8
		s0.5,1.6,0.5,2.6v12.2H402.7z M402.4,270.8h-3.9c-0.8,0-1.4,0.1-2,0.2s-1,0.4-1.4,0.7s-0.6,0.6-0.8,1s-0.3,0.8-0.3,1.3
		c0,0.3,0.1,0.7,0.2,1s0.3,0.6,0.5,0.8s0.5,0.4,0.9,0.6s0.8,0.2,1.4,0.2c0.7,0,1.5-0.2,2.4-0.6s1.9-1.1,2.9-2V270.8z"/>
	<path d="M70.8,307h-5.2v-2.5h8.3v15.1h5.3v2.5H65v-2.5h5.8V307z M71.9,297c0.3,0,0.7,0.1,0.9,0.2s0.5,0.3,0.8,0.5s0.4,0.5,0.5,0.8
		s0.2,0.6,0.2,0.9c0,0.3-0.1,0.6-0.2,0.9s-0.3,0.6-0.5,0.8s-0.5,0.4-0.8,0.5s-0.6,0.2-0.9,0.2s-0.7-0.1-0.9-0.2s-0.5-0.3-0.8-0.5
		s-0.4-0.5-0.5-0.8s-0.2-0.6-0.2-0.9c0-0.3,0.1-0.7,0.2-0.9s0.3-0.5,0.5-0.8s0.5-0.4,0.8-0.5S71.5,297,71.9,297z"/>
	<path d="M90.6,299.8h-5.2v-2.5h8.3v22.3h5.3v2.5H84.8v-2.5h5.8V299.8z"/>
	<path d="M110.4,299.8h-5.2v-2.5h8.3v22.3h5.3v2.5h-14.2v-2.5h5.8V299.8z"/>
	<path d="M138.3,322.1h-2.7l-0.1-2.8c-0.5,0.6-1,1.1-1.5,1.5s-0.9,0.7-1.4,1s-0.9,0.4-1.4,0.5s-1,0.1-1.5,0.1
		c-1.8,0-3.2-0.5-4.1-1.6s-1.4-2.7-1.4-4.8v-11.5h3.1v11.3c0,2.7,1,4.1,3.1,4.1c0.4,0,0.7-0.1,1.1-0.2s0.7-0.3,1.1-0.6
		s0.8-0.6,1.3-1.1s1-1.1,1.5-1.8v-11.7h3.1V322.1z M127.5,297.4c0.3,0,0.5,0.1,0.8,0.2s0.5,0.2,0.6,0.4s0.3,0.4,0.4,0.6
		s0.2,0.5,0.2,0.8s-0.1,0.5-0.2,0.8s-0.2,0.4-0.4,0.6s-0.4,0.3-0.6,0.4s-0.5,0.2-0.8,0.2s-0.5-0.1-0.8-0.2s-0.4-0.2-0.6-0.4
		s-0.3-0.4-0.4-0.6s-0.2-0.5-0.2-0.8s0.1-0.5,0.2-0.8s0.2-0.5,0.4-0.6s0.4-0.3,0.6-0.4S127.2,297.4,127.5,297.4z M135,297.4
		c0.3,0,0.5,0.1,0.8,0.2s0.5,0.2,0.6,0.4s0.3,0.4,0.4,0.6s0.2,0.5,0.2,0.8s-0.1,0.5-0.2,0.8s-0.2,0.4-0.4,0.6s-0.4,0.3-0.6,0.4
		s-0.5,0.2-0.8,0.2s-0.5-0.1-0.8-0.2s-0.4-0.2-0.6-0.4s-0.3-0.4-0.4-0.6s-0.2-0.5-0.2-0.8s0.1-0.5,0.2-0.8s0.2-0.5,0.4-0.6
		s0.4-0.3,0.6-0.4S134.8,297.4,135,297.4z"/>
	<path d="M158.2,322.1H144v-2.2l10-12.9h-9.7v-2.6h13.4v2.4l-9.8,12.7h10.4V322.1z"/>
	<path d="M169.8,307h-5.2v-2.5h8.3v15.1h5.3v2.5H164v-2.5h5.8V307z M170.8,297c0.3,0,0.7,0.1,0.9,0.2s0.5,0.3,0.8,0.5
		s0.4,0.5,0.5,0.8s0.2,0.6,0.2,0.9c0,0.3-0.1,0.6-0.2,0.9s-0.3,0.6-0.5,0.8s-0.5,0.4-0.8,0.5s-0.6,0.2-0.9,0.2s-0.7-0.1-0.9-0.2
		s-0.5-0.3-0.8-0.5s-0.4-0.5-0.5-0.8s-0.2-0.6-0.2-0.9c0-0.3,0.1-0.7,0.2-0.9s0.3-0.5,0.5-0.8s0.5-0.4,0.8-0.5S170.5,297,170.8,297z
		"/>
	<path d="M199.2,304.4l-6,15.8c-0.6,1.6-1.3,3-1.9,4.1s-1.4,2.1-2.2,2.9s-1.6,1.3-2.6,1.6s-2,0.5-3.1,0.5c-0.3,0-0.6,0-0.8,0
		s-0.5,0-0.8-0.1v-2.8c0.3,0,0.5,0.1,0.8,0.1s0.6,0,1,0c0.6,0,1.1-0.1,1.6-0.2s0.9-0.4,1.4-0.8s0.8-0.8,1.2-1.4s0.8-1.3,1.2-2.1
		l-7-17.6h3.5l4.5,11.7l0.9,2.7l1-2.8l4.1-11.6H199.2z"/>
	<path d="M214.7,322.1l-0.1-2.4c-1,0.9-1.9,1.6-2.9,2.1s-2,0.6-3.1,0.6c-1,0-1.9-0.1-2.6-0.4s-1.3-0.6-1.8-1.1s-0.8-1-1-1.6
		s-0.3-1.3-0.3-2c0-1.8,0.7-3.2,2-4.2s3.3-1.5,5.8-1.5h3.7v-1.5c0-1-0.3-1.9-1-2.5s-1.7-0.9-3.1-0.9c-1,0-2,0.1-2.9,0.3
		s-2,0.5-3,0.9v-2.8c0.4-0.1,0.8-0.3,1.3-0.4s1-0.3,1.5-0.4s1.1-0.2,1.7-0.3s1.2-0.1,1.7-0.1c1.1,0,2,0.1,2.9,0.4s1.6,0.6,2.2,1.1
		s1,1.1,1.4,1.8s0.5,1.6,0.5,2.6v12.2H214.7z M214.3,314h-3.9c-0.8,0-1.4,0.1-2,0.2s-1,0.4-1.4,0.7s-0.6,0.6-0.8,1s-0.3,0.8-0.3,1.3
		c0,0.3,0.1,0.7,0.2,1s0.3,0.6,0.5,0.8s0.5,0.4,0.9,0.6s0.8,0.2,1.4,0.2c0.7,0,1.5-0.2,2.4-0.6s1.9-1.1,2.9-2V314z"/>
	<path d="M229.1,299.8h-5.2v-2.5h8.3v22.3h5.3v2.5h-14.2v-2.5h5.8V299.8z"/>
	<path d="M254.3,322.1l-0.1-2.4c-1,0.9-1.9,1.6-2.9,2.1s-2,0.6-3.1,0.6c-1,0-1.9-0.1-2.6-0.4s-1.3-0.6-1.8-1.1s-0.8-1-1-1.6
		s-0.3-1.3-0.3-2c0-1.8,0.7-3.2,2-4.2s3.3-1.5,5.8-1.5h3.7v-1.5c0-1-0.3-1.9-1-2.5s-1.7-0.9-3.1-0.9c-1,0-2,0.1-2.9,0.3
		s-2,0.5-3,0.9v-2.8c0.4-0.1,0.8-0.3,1.3-0.4s1-0.3,1.5-0.4s1.1-0.2,1.7-0.3s1.2-0.1,1.7-0.1c1.1,0,2,0.1,2.9,0.4s1.6,0.6,2.2,1.1
		s1,1.1,1.4,1.8s0.5,1.6,0.5,2.6v12.2H254.3z M253.9,314H250c-0.8,0-1.4,0.1-2,0.2s-1,0.4-1.4,0.7s-0.6,0.6-0.8,1s-0.3,0.8-0.3,1.3
		c0,0.3,0.1,0.7,0.2,1s0.3,0.6,0.5,0.8s0.5,0.4,0.9,0.6s0.8,0.2,1.4,0.2c0.7,0,1.5-0.2,2.4-0.6s1.9-1.1,2.9-2V314z"/>
	<path d="M263.4,304.4h2.8l0.1,3.3c1-1.3,2.1-2.2,3.1-2.7s2-0.8,3.1-0.8c1.8,0,3.2,0.6,4.2,1.8s1.4,2.9,1.3,5.3h-3.1
		c0-1.5-0.2-2.7-0.7-3.4s-1.2-1-2.1-1c-0.4,0-0.8,0.1-1.2,0.2s-0.8,0.4-1.3,0.7s-0.9,0.7-1.4,1.2s-1,1.1-1.6,1.8v11.3h-3.1V304.4z"
		/>
	<path d="M317.2,312.3c0,0.4,0,0.8,0,1.1s0,0.6-0.1,0.8h-12.4c0,1.8,0.5,3.2,1.5,4.2s2.5,1.5,4.4,1.5c0.5,0,1,0,1.5-0.1
		s1-0.1,1.5-0.2s0.9-0.1,1.4-0.2s0.8-0.2,1.2-0.3v2.5c-0.8,0.2-1.8,0.4-2.8,0.6s-2.1,0.2-3.3,0.2c-1.5,0-2.8-0.2-3.9-0.6
		s-2-1-2.7-1.8s-1.2-1.7-1.5-2.9s-0.5-2.4-0.5-3.8c0-1.2,0.2-2.4,0.5-3.5s0.9-2.1,1.6-2.9s1.5-1.5,2.5-2s2.1-0.7,3.4-0.7
		c1.2,0,2.3,0.2,3.3,0.6s1.7,0.9,2.4,1.6s1.1,1.6,1.5,2.6S317.2,311.1,317.2,312.3z M314,311.9c0-0.8,0-1.5-0.2-2.2
		s-0.5-1.2-0.9-1.7s-0.9-0.8-1.5-1.1s-1.3-0.4-2-0.4c-0.7,0-1.3,0.1-1.8,0.4s-1,0.6-1.4,1.1s-0.7,1-1,1.7s-0.4,1.4-0.5,2.2H314z"/>
	<path d="M321.2,313.6c0-1.5,0.2-2.8,0.6-4s1-2.2,1.7-3s1.7-1.4,2.7-1.8s2.2-0.6,3.5-0.6c0.6,0,1.1,0,1.7,0.1s1.1,0.2,1.6,0.3v-7.4
		h3.1v24.8h-2.7l-0.1-3.3c-0.9,1.2-1.8,2.2-2.8,2.8s-2.1,0.9-3.2,0.9c-1,0-1.9-0.2-2.7-0.6s-1.4-1-1.9-1.8s-0.9-1.7-1.2-2.8
		S321.2,314.9,321.2,313.6z M324.3,313.4c0,2.1,0.3,3.7,0.9,4.8s1.5,1.6,2.7,1.6c0.8,0,1.6-0.3,2.5-1s1.8-1.7,2.7-3.1v-8.2
		c-0.5-0.2-1.1-0.4-1.7-0.5s-1.2-0.2-1.8-0.2c-1.7,0-3,0.5-3.9,1.6S324.3,311.1,324.3,313.4z"/>
	<path d="M347.9,307h-5.2v-2.5h8.3v15.1h5.3v2.5h-14.2v-2.5h5.8V307z M349,297c0.3,0,0.7,0.1,0.9,0.2s0.5,0.3,0.8,0.5
		s0.4,0.5,0.5,0.8s0.2,0.6,0.2,0.9c0,0.3-0.1,0.6-0.2,0.9s-0.3,0.6-0.5,0.8s-0.5,0.4-0.8,0.5s-0.6,0.2-0.9,0.2s-0.7-0.1-0.9-0.2
		s-0.5-0.3-0.8-0.5s-0.4-0.5-0.5-0.8s-0.2-0.6-0.2-0.9c0-0.3,0.1-0.7,0.2-0.9s0.3-0.5,0.5-0.8s0.5-0.4,0.8-0.5S348.6,297,349,297z"
		/>
	<path d="M362.4,304.4h2.8l0.1,3.3c1-1.3,2.1-2.2,3.1-2.7s2-0.8,3.1-0.8c1.8,0,3.2,0.6,4.2,1.8s1.4,2.9,1.3,5.3h-3.1
		c0-1.5-0.2-2.7-0.7-3.4s-1.2-1-2.1-1c-0.4,0-0.8,0.1-1.2,0.2s-0.8,0.4-1.3,0.7s-0.9,0.7-1.4,1.2s-1,1.1-1.6,1.8v11.3h-3.1V304.4z"
		/>
	<path d="M380.7,314.2c0-0.4,0-0.8,0-1.1s0-0.6,0.1-0.8h12.4c0-1.8-0.5-3.2-1.5-4.1s-2.5-1.4-4.4-1.4c-1,0-2.1,0.1-3,0.2
		s-1.9,0.3-2.6,0.5v-2.6c0.8-0.2,1.8-0.4,2.8-0.6s2.1-0.2,3.3-0.2c1.5,0,2.8,0.2,3.9,0.6s2,1,2.7,1.8s1.2,1.7,1.5,2.9
		s0.5,2.4,0.5,3.8c0,1.2-0.2,2.4-0.5,3.5s-0.9,2.1-1.5,2.9s-1.5,1.5-2.5,2s-2.1,0.7-3.4,0.7c-1.2,0-2.3-0.2-3.3-0.6
		s-1.8-0.9-2.4-1.6s-1.2-1.6-1.5-2.6S380.7,315.4,380.7,314.2z M383.9,314.6c0,0.8,0,1.5,0.2,2.2s0.5,1.2,0.9,1.7s0.9,0.9,1.5,1.1
		s1.3,0.4,2,0.4c0.7,0,1.3-0.1,1.8-0.4s1-0.6,1.4-1.1s0.7-1,1-1.7s0.4-1.4,0.4-2.2H383.9z"/>
	<path d="M413.8,322.1v-12.7c0-0.6,0-1-0.1-1.4s-0.1-0.6-0.2-0.8s-0.2-0.3-0.3-0.4s-0.3-0.1-0.5-0.1c-0.2,0-0.5,0.1-0.7,0.2
		s-0.4,0.4-0.6,0.7s-0.5,0.7-0.8,1.3s-0.6,1.2-1,1.9v11.3h-2.8v-12.3c0-0.6,0-1.2-0.1-1.6s-0.1-0.7-0.2-0.9s-0.2-0.4-0.3-0.5
		s-0.3-0.1-0.5-0.1c-0.2,0-0.4,0.1-0.6,0.2s-0.4,0.3-0.6,0.6s-0.5,0.7-0.8,1.2s-0.6,1.2-1,2v11.3H400v-17.6h2.3l0.1,3.4
		c0.3-0.7,0.6-1.2,0.9-1.7s0.6-0.8,0.9-1.1s0.6-0.5,1-0.6s0.7-0.2,1.2-0.2c0.9,0,1.7,0.3,2.2,0.9s0.7,1.6,0.7,2.9
		c0.3-0.6,0.6-1.2,0.8-1.6s0.6-0.9,0.9-1.2s0.7-0.6,1-0.7s0.8-0.3,1.3-0.3c2.2,0,3.3,1.7,3.3,5.1v12.8H413.8z"/>
	<path d="M428,316.5c0.4,0,0.8,0.1,1.1,0.2s0.7,0.4,0.9,0.6s0.5,0.6,0.6,0.9s0.2,0.7,0.2,1.2c0,0.4-0.1,0.8-0.2,1.1
		s-0.4,0.7-0.6,0.9s-0.6,0.5-0.9,0.6s-0.7,0.2-1.1,0.2c-0.4,0-0.8-0.1-1.1-0.2s-0.7-0.4-0.9-0.6s-0.5-0.6-0.6-0.9s-0.2-0.7-0.2-1.1
		c0-0.4,0.1-0.8,0.2-1.2s0.4-0.7,0.6-0.9s0.6-0.5,0.9-0.6S427.6,316.5,428,316.5z"/>
</g>
<g>
	<path d="M177.5,150.2l-4.1,14.4c-0.3,1-0.4,1.6-0.4,1.7c0,0.2,0.1,0.4,0.2,0.5s0.3,0.2,0.5,0.2c0.2,0,0.5-0.1,0.7-0.3
		c0.8-0.6,1.6-1.5,2.4-2.6l0.7,0.5c-0.9,1.4-2,2.6-3.3,3.6c-0.9,0.7-1.8,1.1-2.7,1.1c-0.6,0-1-0.2-1.4-0.5s-0.5-0.8-0.5-1.3
		s0.2-1.3,0.5-2.5l2.7-9.2c0.4-1.5,0.7-2.4,0.7-2.8c0-0.3-0.1-0.5-0.3-0.7s-0.5-0.3-0.9-0.3c-0.3,0-0.9,0.1-1.9,0.2v-0.8
		L177.5,150.2z M177.2,142c0.6,0,1.1,0.2,1.5,0.6s0.6,0.9,0.6,1.5c0,0.6-0.2,1-0.6,1.4s-0.9,0.6-1.4,0.6s-1-0.2-1.4-0.6
		s-0.6-0.9-0.6-1.4c0-0.6,0.2-1.1,0.6-1.5S176.7,142,177.2,142z"/>
	<path d="M184.7,155.5v-3l4.6-3.5c0.8-0.6,1.5-1.2,2-1.6c0.5-0.4,0.9-0.9,1.2-1.2c0.3-0.4,0.5-0.7,0.6-1c0.1-0.3,0.2-0.7,0.2-1
		c0-0.6-0.2-1.2-0.7-1.6c-0.5-0.4-1.2-0.6-2.1-0.6c-0.7,0-1.4,0.1-2,0.4c-0.6,0.3-1.2,0.6-1.7,1.1l-1.8-2.2c0.8-0.8,1.7-1.3,2.7-1.8
		c1-0.4,2.2-0.6,3.3-0.6c0.9,0,1.7,0.1,2.5,0.3c0.8,0.2,1.4,0.5,2,1c0.6,0.4,1,1,1.3,1.6c0.3,0.6,0.5,1.4,0.5,2.2
		c0,0.7-0.1,1.3-0.3,1.8c-0.2,0.6-0.5,1.1-0.9,1.7c-0.4,0.5-0.9,1.1-1.5,1.6c-0.6,0.5-1.3,1-2,1.6l-2.4,1.7h8.1v3.2H184.7z"/>
	<path d="M246.6,155.5H229v-3h17.6V155.5z M246.6,162.6H229v-3h17.6V162.6z"/>
	<path d="M290.1,159.2h-12.3v-3.4h12.3V159.2z"/>
	<path d="M316,168.7h-16.8v-3.3h6.9v-19.6l-6.4,3.5l-1.3-3l8.5-4.5h3.2v23.6h6V168.7z"/>
</g>
<line class="st1" x1="68.3" y1="194.6" x2="418.2" y2="194.6"/>
</svg>
