<?xml version="1.0" encoding="utf-8"?>
<!-- Generator: Adobe Illustrator 23.0.6, SVG Export Plug-In . SVG Version: 6.00 Build 0)  -->
<svg version="1.1" id="Layer_1" xmlns="http://www.w3.org/2000/svg" xmlns:xlink="http://www.w3.org/1999/xlink" x="0px" y="0px"
	 viewBox="0 0 500 500" style="enable-background:new 0 0 500 500;" xml:space="preserve">
<style type="text/css">
	.st0{display:none;fill:#231F20;}
	.st1{fill:none;stroke:#C2B59B;stroke-miterlimit:10;}
</style>
<rect class="st0" width="505.2" height="500"/>
<g>
	<path d="M144.3,235.7h-3.1l-0.5-14.3l-0.2-5.5l-1.1,3.2l-3.4,9.1H134l-3.2-8.8l-1.1-3.6l-0.1,5.7l-0.4,14.1h-3l1.1-23h3.7l3.1,8.6
		l1,2.9l1-2.9l3.3-8.6h3.8L144.3,235.7z"/>
	<path d="M163.7,218l-6,15.8c-0.6,1.6-1.3,3-1.9,4.1s-1.4,2.1-2.2,2.9s-1.6,1.3-2.6,1.6s-2,0.5-3.1,0.5c-0.3,0-0.6,0-0.8,0
		s-0.5,0-0.8-0.1v-2.8c0.3,0,0.5,0.1,0.8,0.1s0.6,0,1,0c0.6,0,1.1-0.1,1.6-0.2s0.9-0.4,1.4-0.8s0.8-0.8,1.2-1.4s0.8-1.3,1.2-2.1
		l-7-17.6h3.5l4.5,11.7l0.9,2.7l1-2.8l4.1-11.6H163.7z"/>
	<path d="M187.6,218h2.7l0.1,2.8c0.5-0.6,1-1.1,1.5-1.5s1-0.7,1.4-1s0.9-0.4,1.4-0.5s1-0.1,1.5-0.1c1.8,0,3.2,0.5,4.1,1.6
		s1.4,2.7,1.4,4.8v11.5h-3.1v-11.3c0-1.4-0.3-2.4-0.8-3.1s-1.3-1-2.3-1c-0.4,0-0.7,0.1-1.1,0.2s-0.7,0.3-1.1,0.6s-0.8,0.6-1.3,1.1
		s-1,1.1-1.5,1.8v11.7h-3.1V218z"/>
	<path d="M218.7,235.7l-0.1-2.4c-1,0.9-1.9,1.6-2.9,2.1s-2,0.6-3.1,0.6c-1,0-1.9-0.1-2.6-0.4s-1.3-0.6-1.8-1.1s-0.8-1-1-1.6
		s-0.3-1.3-0.3-2c0-1.8,0.7-3.2,2-4.2s3.3-1.5,5.8-1.5h3.7v-1.5c0-1-0.3-1.9-1-2.5s-1.7-0.9-3.1-0.9c-1,0-2,0.1-2.9,0.3
		s-2,0.5-3,0.9v-2.8c0.4-0.1,0.8-0.3,1.3-0.4s1-0.3,1.5-0.4s1.1-0.2,1.7-0.3s1.2-0.1,1.7-0.1c1.1,0,2,0.1,2.9,0.4s1.6,0.6,2.2,1.1
		s1,1.1,1.4,1.8s0.5,1.6,0.5,2.6v12.2H218.7z M218.4,227.6h-3.9c-0.8,0-1.4,0.1-2,0.2s-1,0.4-1.4,0.7s-0.6,0.6-0.8,1
		s-0.3,0.8-0.3,1.3c0,0.3,0.1,0.7,0.2,1s0.3,0.6,0.5,0.8s0.5,0.4,0.9,0.6s0.8,0.2,1.4,0.2c0.7,0,1.5-0.2,2.4-0.6s1.9-1.1,2.9-2
		V227.6z"/>
	<path d="M239.8,235.7V223c0-0.6,0-1-0.1-1.4s-0.1-0.6-0.2-0.8s-0.2-0.3-0.3-0.4s-0.3-0.1-0.5-0.1c-0.2,0-0.5,0.1-0.7,0.2
		s-0.4,0.4-0.6,0.7s-0.5,0.7-0.8,1.3s-0.6,1.2-1,1.9v11.3h-2.8v-12.3c0-0.6,0-1.2-0.1-1.6s-0.1-0.7-0.2-0.9s-0.2-0.4-0.3-0.5
		s-0.3-0.1-0.5-0.1c-0.2,0-0.4,0.1-0.6,0.2s-0.4,0.3-0.6,0.6s-0.5,0.7-0.8,1.2s-0.6,1.2-1,2v11.3H226V218h2.3l0.1,3.4
		c0.3-0.7,0.6-1.2,0.9-1.7s0.6-0.8,0.9-1.1s0.6-0.5,1-0.6s0.7-0.2,1.2-0.2c0.9,0,1.7,0.3,2.2,0.9s0.7,1.6,0.7,2.9
		c0.3-0.6,0.6-1.2,0.8-1.6s0.6-0.9,0.9-1.2s0.7-0.6,1-0.7s0.8-0.3,1.3-0.3c2.2,0,3.3,1.7,3.3,5.1v12.8H239.8z"/>
	<path d="M261.9,225.9c0,0.4,0,0.8,0,1.1s0,0.6-0.1,0.8h-12.4c0,1.8,0.5,3.2,1.5,4.2c1,1,2.5,1.5,4.4,1.5c0.5,0,1,0,1.5-0.1
		s1-0.1,1.5-0.2s0.9-0.1,1.4-0.2s0.8-0.2,1.2-0.3v2.5c-0.8,0.2-1.8,0.4-2.8,0.6s-2.1,0.2-3.3,0.2c-1.5,0-2.8-0.2-3.9-0.6
		c-1.1-0.4-2-1-2.7-1.8s-1.2-1.7-1.5-2.9s-0.5-2.4-0.5-3.8c0-1.2,0.2-2.4,0.5-3.5s0.9-2.1,1.6-2.9s1.5-1.5,2.5-2
		c1-0.5,2.1-0.7,3.4-0.7c1.2,0,2.3,0.2,3.3,0.6s1.7,0.9,2.4,1.6s1.1,1.6,1.5,2.6S261.9,224.7,261.9,225.9z M258.7,225.5
		c0-0.8,0-1.5-0.2-2.2s-0.5-1.2-0.9-1.7s-0.9-0.8-1.5-1.1s-1.3-0.4-2-0.4c-0.7,0-1.3,0.1-1.8,0.4s-1,0.6-1.4,1.1
		c-0.4,0.5-0.7,1-1,1.7s-0.4,1.4-0.5,2.2H258.7z"/>
	<path d="M292.6,220.6h-5.2V218h8.3v15.1h5.3v2.5h-14.2v-2.5h5.8V220.6z M293.6,210.6c0.3,0,0.7,0.1,0.9,0.2s0.5,0.3,0.8,0.5
		s0.4,0.5,0.5,0.8s0.2,0.6,0.2,0.9c0,0.3-0.1,0.6-0.2,0.9s-0.3,0.6-0.5,0.8s-0.5,0.4-0.8,0.5s-0.6,0.2-0.9,0.2s-0.7-0.1-0.9-0.2
		s-0.5-0.3-0.8-0.5s-0.4-0.5-0.5-0.8s-0.2-0.6-0.2-0.9c0-0.3,0.1-0.7,0.2-0.9s0.3-0.5,0.5-0.8s0.5-0.4,0.8-0.5
		S293.3,210.6,293.6,210.6z"/>
	<path d="M320.3,230.9c0,0.6-0.1,1.2-0.3,1.7s-0.5,0.9-0.9,1.3s-0.8,0.7-1.3,1s-1,0.5-1.5,0.7s-1.1,0.3-1.7,0.4s-1.1,0.1-1.7,0.1
		c-1.2,0-2.3-0.1-3.3-0.2s-2-0.3-2.9-0.5v-2.8c1,0.3,2.1,0.5,3.1,0.7s2,0.2,3,0.2c1.5,0,2.5-0.2,3.3-0.6s1.1-1,1.1-1.7
		c0-0.3-0.1-0.6-0.2-0.9s-0.3-0.5-0.6-0.7s-0.7-0.5-1.4-0.7s-1.5-0.5-2.5-0.8c-0.8-0.2-1.5-0.5-2.2-0.8s-1.3-0.7-1.7-1.1
		s-0.9-0.9-1.2-1.4s-0.4-1.2-0.4-2c0-0.5,0.1-1,0.3-1.6s0.6-1.1,1.2-1.6s1.3-0.9,2.2-1.3s2.1-0.5,3.5-0.5c0.7,0,1.5,0,2.3,0.1
		s1.7,0.2,2.6,0.4v2.7c-1-0.2-1.9-0.4-2.7-0.5s-1.6-0.2-2.2-0.2c-0.8,0-1.4,0.1-1.9,0.2s-0.9,0.3-1.3,0.5s-0.6,0.4-0.7,0.7
		s-0.2,0.6-0.2,0.9s0.1,0.6,0.2,0.9s0.4,0.5,0.7,0.7s0.8,0.5,1.4,0.7s1.4,0.5,2.3,0.8c1,0.3,1.9,0.6,2.6,1s1.3,0.7,1.7,1.1
		s0.8,0.9,1,1.4S320.3,230.2,320.3,230.9z"/>
	<path d="M352.8,217.1l-4.1,14.4c-0.3,1-0.4,1.6-0.4,1.7c0,0.2,0.1,0.4,0.2,0.5s0.3,0.2,0.5,0.2c0.2,0,0.5-0.1,0.7-0.3
		c0.8-0.6,1.6-1.5,2.4-2.6l0.7,0.5c-0.9,1.4-2,2.6-3.3,3.6c-0.9,0.7-1.8,1.1-2.7,1.1c-0.6,0-1-0.2-1.4-0.5s-0.5-0.8-0.5-1.3
		s0.2-1.3,0.5-2.5l2.7-9.2c0.4-1.5,0.7-2.4,0.7-2.8c0-0.3-0.1-0.5-0.3-0.7s-0.5-0.3-0.9-0.3c-0.3,0-0.9,0.1-1.9,0.2v-0.8
		L352.8,217.1z M352.5,209c0.6,0,1.1,0.2,1.5,0.6s0.6,0.9,0.6,1.5c0,0.6-0.2,1-0.6,1.4s-0.9,0.6-1.4,0.6s-1-0.2-1.4-0.6
		s-0.6-0.9-0.6-1.4c0-0.6,0.2-1.1,0.6-1.5S351.9,209,352.5,209z"/>
	<path d="M364.6,230.1c0.4,0,0.8,0.1,1.1,0.2s0.7,0.4,0.9,0.6s0.5,0.6,0.6,0.9s0.2,0.7,0.2,1.2c0,0.4-0.1,0.8-0.2,1.1
		s-0.4,0.7-0.6,0.9s-0.6,0.5-0.9,0.6s-0.7,0.2-1.1,0.2c-0.4,0-0.8-0.1-1.1-0.2s-0.7-0.4-0.9-0.6s-0.5-0.6-0.6-0.9s-0.2-0.7-0.2-1.1
		c0-0.4,0.1-0.8,0.2-1.2s0.4-0.7,0.6-0.9s0.6-0.5,0.9-0.6S364.1,230.1,364.6,230.1z"/>
	<path d="M70.3,258.5H65v-2.6h13.7v2.6h-5.3v17.7h5.3v2.7H65v-2.7h5.3V258.5z"/>
	<path d="M118.1,278.2c-0.8,0.3-1.6,0.5-2.5,0.7s-1.7,0.2-2.6,0.2c-2.8,0-4.9-0.8-6.4-2.3s-2.3-3.7-2.3-6.6c0-1.4,0.2-2.7,0.7-3.8
		s1-2.1,1.8-2.9s1.7-1.4,2.8-1.9s2.3-0.7,3.6-0.7c0.9,0,1.8,0.1,2.6,0.2s1.6,0.3,2.3,0.6v2.9c-0.8-0.4-1.5-0.7-2.3-0.9
		s-1.6-0.3-2.5-0.3c-0.8,0-1.5,0.1-2.2,0.4s-1.3,0.7-1.8,1.3s-0.9,1.2-1.2,2.1s-0.5,1.7-0.5,2.7c0,2.1,0.5,3.7,1.6,4.8
		s2.5,1.6,4.3,1.6c0.8,0,1.6-0.1,2.4-0.3s1.5-0.5,2.3-0.8V278.2z"/>
	<path d="M124.9,261.2h2.8l0.1,3.3c1-1.3,2.1-2.2,3.1-2.7s2-0.8,3.1-0.8c1.8,0,3.2,0.6,4.2,1.8s1.4,2.9,1.3,5.3h-3.1
		c0-1.5-0.2-2.7-0.7-3.4s-1.2-1-2.1-1c-0.4,0-0.8,0.1-1.2,0.2s-0.8,0.4-1.3,0.7s-0.9,0.7-1.4,1.2s-1,1.1-1.6,1.8v11.3h-3.1V261.2z"
		/>
	<path d="M158.9,269.1c0,0.4,0,0.8,0,1.1s0,0.6-0.1,0.8h-12.4c0,1.8,0.5,3.2,1.5,4.2s2.5,1.5,4.4,1.5c0.5,0,1,0,1.5-0.1
		s1-0.1,1.5-0.2s0.9-0.1,1.4-0.2s0.8-0.2,1.2-0.3v2.5c-0.8,0.2-1.8,0.4-2.8,0.6s-2.1,0.2-3.3,0.2c-1.5,0-2.8-0.2-3.9-0.6
		s-2-1-2.7-1.8s-1.2-1.7-1.5-2.9s-0.5-2.4-0.5-3.8c0-1.2,0.2-2.4,0.5-3.5s0.9-2.1,1.6-2.9s1.5-1.5,2.5-2s2.1-0.7,3.4-0.7
		c1.2,0,2.3,0.2,3.3,0.6s1.7,0.9,2.4,1.6s1.1,1.6,1.5,2.6S158.9,267.9,158.9,269.1z M155.7,268.7c0-0.8,0-1.5-0.2-2.2
		s-0.5-1.2-0.9-1.7s-0.9-0.8-1.5-1.1s-1.3-0.4-2-0.4c-0.7,0-1.3,0.1-1.8,0.4s-1,0.6-1.4,1.1s-0.7,1-1,1.7s-0.4,1.4-0.5,2.2H155.7z"
		/>
	<path d="M175.1,278.9l-0.1-2.4c-1,0.9-1.9,1.6-2.9,2.1s-2,0.6-3.1,0.6c-1,0-1.9-0.1-2.6-0.4s-1.3-0.6-1.8-1.1s-0.8-1-1-1.6
		s-0.3-1.3-0.3-2c0-1.8,0.7-3.2,2-4.2s3.3-1.5,5.8-1.5h3.7V267c0-1-0.3-1.9-1-2.5s-1.7-0.9-3.1-0.9c-1,0-2,0.1-2.9,0.3s-2,0.5-3,0.9
		V262c0.4-0.1,0.8-0.3,1.3-0.4s1-0.3,1.5-0.4s1.1-0.2,1.7-0.3s1.2-0.1,1.7-0.1c1.1,0,2,0.1,2.9,0.4s1.6,0.6,2.2,1.1s1,1.1,1.4,1.8
		s0.5,1.6,0.5,2.6v12.2H175.1z M174.7,270.8h-3.9c-0.8,0-1.4,0.1-2,0.2s-1,0.4-1.4,0.7s-0.6,0.6-0.8,1s-0.3,0.8-0.3,1.3
		c0,0.3,0.1,0.7,0.2,1s0.3,0.6,0.5,0.8s0.5,0.4,0.9,0.6s0.8,0.2,1.4,0.2c0.7,0,1.5-0.2,2.4-0.6s1.9-1.1,2.9-2V270.8z"/>
	<path d="M197.8,278.6c-0.7,0.2-1.4,0.3-2.1,0.4s-1.5,0.1-2.3,0.1c-2.2,0-3.9-0.5-5-1.5s-1.6-2.5-1.6-4.6v-9.2h-4.9v-2.6h4.9v-4.9
		l3.1-0.8v5.6h7.9v2.6h-7.9v9c0,1.3,0.3,2.2,1,2.8s1.7,0.9,3,0.9c0.6,0,1.2,0,1.8-0.1s1.4-0.2,2.1-0.4V278.6z"/>
	<path d="M218.2,269.1c0,0.4,0,0.8,0,1.1s0,0.6-0.1,0.8h-12.4c0,1.8,0.5,3.2,1.5,4.2s2.5,1.5,4.4,1.5c0.5,0,1,0,1.5-0.1
		s1-0.1,1.5-0.2s0.9-0.1,1.4-0.2s0.8-0.2,1.2-0.3v2.5c-0.8,0.2-1.8,0.4-2.8,0.6s-2.1,0.2-3.3,0.2c-1.5,0-2.8-0.2-3.9-0.6
		s-2-1-2.7-1.8s-1.2-1.7-1.5-2.9s-0.5-2.4-0.5-3.8c0-1.2,0.2-2.4,0.5-3.5s0.9-2.1,1.6-2.9s1.5-1.5,2.5-2s2.1-0.7,3.4-0.7
		c1.2,0,2.3,0.2,3.3,0.6s1.7,0.9,2.4,1.6s1.1,1.6,1.5,2.6S218.2,267.9,218.2,269.1z M215.1,268.7c0-0.8,0-1.5-0.2-2.2
		s-0.5-1.2-0.9-1.7s-0.9-0.8-1.5-1.1s-1.3-0.4-2-0.4c-0.7,0-1.3,0.1-1.8,0.4s-1,0.6-1.4,1.1s-0.7,1-1,1.7s-0.4,1.4-0.5,2.2H215.1z"
		/>
	<path d="M248.9,263.8h-5.2v-2.5h8.3v15.1h5.3v2.5h-14.2v-2.5h5.8V263.8z M250,253.8c0.3,0,0.7,0.1,0.9,0.2s0.5,0.3,0.8,0.5
		s0.4,0.5,0.5,0.8s0.2,0.6,0.2,0.9c0,0.3-0.1,0.6-0.2,0.9s-0.3,0.6-0.5,0.8s-0.5,0.4-0.8,0.5s-0.6,0.2-0.9,0.2s-0.7-0.1-0.9-0.2
		s-0.5-0.3-0.8-0.5s-0.4-0.5-0.5-0.8s-0.2-0.6-0.2-0.9c0-0.3,0.1-0.7,0.2-0.9s0.3-0.5,0.5-0.8s0.5-0.4,0.8-0.5
		S249.7,253.8,250,253.8z"/>
	<path d="M268.7,256.6h-5.2V254h8.3v22.3h5.3v2.5h-14.2v-2.5h5.8V256.6z"/>
	<path d="M288.5,256.6h-5.2V254h8.3v22.3h5.3v2.5h-14.2v-2.5h5.8V256.6z"/>
	<path d="M316.5,278.9h-2.7l-0.1-2.8c-0.5,0.6-1,1.1-1.5,1.5s-0.9,0.7-1.4,1s-0.9,0.4-1.4,0.5s-1,0.1-1.5,0.1
		c-1.8,0-3.2-0.5-4.1-1.6s-1.4-2.7-1.4-4.8v-11.5h3.1v11.3c0,2.7,1,4.1,3.1,4.1c0.4,0,0.7-0.1,1.1-0.2s0.7-0.3,1.1-0.6
		s0.8-0.6,1.3-1.1s1-1.1,1.5-1.8v-11.7h3.1V278.9z"/>
	<path d="M336.1,274.1c0,0.6-0.1,1.2-0.3,1.7s-0.5,0.9-0.9,1.3s-0.8,0.7-1.3,1s-1,0.5-1.5,0.7s-1.1,0.3-1.7,0.4s-1.1,0.1-1.7,0.1
		c-1.2,0-2.3-0.1-3.3-0.2s-2-0.3-2.9-0.5v-2.8c1,0.3,2.1,0.5,3.1,0.7s2,0.2,3,0.2c1.5,0,2.5-0.2,3.3-0.6s1.1-1,1.1-1.7
		c0-0.3-0.1-0.6-0.2-0.9s-0.3-0.5-0.6-0.7s-0.7-0.5-1.4-0.7s-1.5-0.5-2.5-0.8c-0.8-0.2-1.5-0.5-2.2-0.8s-1.3-0.7-1.7-1.1
		s-0.9-0.9-1.2-1.4s-0.4-1.2-0.4-2c0-0.5,0.1-1,0.3-1.6s0.6-1.1,1.2-1.6s1.3-0.9,2.2-1.3s2.1-0.5,3.5-0.5c0.7,0,1.5,0,2.3,0.1
		s1.7,0.2,2.6,0.4v2.7c-1-0.2-1.9-0.4-2.7-0.5s-1.6-0.2-2.2-0.2c-0.8,0-1.4,0.1-1.9,0.2s-0.9,0.3-1.3,0.5s-0.6,0.4-0.7,0.7
		s-0.2,0.6-0.2,0.9s0.1,0.6,0.2,0.9s0.4,0.5,0.7,0.7s0.8,0.5,1.4,0.7s1.4,0.5,2.3,0.8c1,0.3,1.9,0.6,2.6,1s1.3,0.7,1.7,1.1
		s0.8,0.9,1,1.4S336.1,273.4,336.1,274.1z"/>
	<path d="M347.9,263.8h-5.2v-2.5h8.3v15.1h5.3v2.5h-14.2v-2.5h5.8V263.8z M349,253.8c0.3,0,0.7,0.1,0.9,0.2s0.5,0.3,0.8,0.5
		s0.4,0.5,0.5,0.8s0.2,0.6,0.2,0.9c0,0.3-0.1,0.6-0.2,0.9s-0.3,0.6-0.5,0.8s-0.5,0.4-0.8,0.5s-0.6,0.2-0.9,0.2s-0.7-0.1-0.9-0.2
		s-0.5-0.3-0.8-0.5s-0.4-0.5-0.5-0.8s-0.2-0.6-0.2-0.9c0-0.3,0.1-0.7,0.2-0.9s0.3-0.5,0.5-0.8s0.5-0.4,0.8-0.5
		S348.6,253.8,349,253.8z"/>
	<path d="M377,269.9c0,1.4-0.2,2.6-0.6,3.8s-0.9,2.1-1.7,2.9s-1.6,1.4-2.7,1.9s-2.2,0.7-3.6,0.7c-1.3,0-2.4-0.2-3.4-0.6
		s-1.9-1-2.5-1.7s-1.2-1.7-1.6-2.8s-0.6-2.4-0.6-3.9c0-1.4,0.2-2.6,0.6-3.8s0.9-2.1,1.7-2.9s1.6-1.4,2.7-1.9s2.2-0.7,3.6-0.7
		c1.3,0,2.4,0.2,3.4,0.6s1.9,1,2.5,1.7s1.2,1.7,1.6,2.8S377,268.5,377,269.9z M373.9,270.1c0-1.1-0.1-2-0.4-2.9s-0.6-1.5-1-2
		s-1-1-1.6-1.2s-1.4-0.4-2.1-0.4c-0.9,0-1.7,0.2-2.3,0.5s-1.2,0.8-1.6,1.4s-0.7,1.3-0.9,2.1s-0.3,1.6-0.3,2.5c0,1.1,0.1,2,0.4,2.9
		s0.6,1.5,1,2s1,1,1.6,1.2s1.3,0.4,2.1,0.4c0.9,0,1.7-0.2,2.3-0.5s1.2-0.8,1.6-1.4s0.7-1.3,0.9-2.1S373.9,270.9,373.9,270.1z"/>
	<path d="M381.5,261.2h2.7l0.1,2.8c0.5-0.6,1-1.1,1.5-1.5s1-0.7,1.4-1s0.9-0.4,1.4-0.5s1-0.1,1.5-0.1c1.8,0,3.2,0.5,4.1,1.6
		s1.4,2.7,1.4,4.8v11.5h-3.1v-11.3c0-1.4-0.3-2.4-0.8-3.1s-1.3-1-2.3-1c-0.4,0-0.7,0.1-1.1,0.2s-0.7,0.3-1.1,0.6s-0.8,0.6-1.3,1.1
		s-1,1.1-1.5,1.8v11.7h-3.1V261.2z"/>
	<path d="M415.2,274.1c0,0.6-0.1,1.2-0.3,1.7s-0.5,0.9-0.9,1.3s-0.8,0.7-1.3,1s-1,0.5-1.5,0.7s-1.1,0.3-1.7,0.4s-1.1,0.1-1.7,0.1
		c-1.2,0-2.3-0.1-3.3-0.2s-2-0.3-2.9-0.5v-2.8c1,0.3,2.1,0.5,3.1,0.7s2,0.2,3,0.2c1.5,0,2.5-0.2,3.3-0.6s1.1-1,1.1-1.7
		c0-0.3-0.1-0.6-0.2-0.9s-0.3-0.5-0.6-0.7s-0.7-0.5-1.4-0.7s-1.5-0.5-2.5-0.8c-0.8-0.2-1.5-0.5-2.2-0.8s-1.3-0.7-1.7-1.1
		s-0.9-0.9-1.2-1.4s-0.4-1.2-0.4-2c0-0.5,0.1-1,0.3-1.6s0.6-1.1,1.2-1.6s1.3-0.9,2.2-1.3s2.1-0.5,3.5-0.5c0.7,0,1.5,0,2.3,0.1
		s1.7,0.2,2.6,0.4v2.7c-1-0.2-1.9-0.4-2.7-0.5s-1.6-0.2-2.2-0.2c-0.8,0-1.4,0.1-1.9,0.2s-0.9,0.3-1.3,0.5s-0.6,0.4-0.7,0.7
		s-0.2,0.6-0.2,0.9s0.1,0.6,0.2,0.9s0.4,0.5,0.7,0.7s0.8,0.5,1.4,0.7s1.4,0.5,2.3,0.8c1,0.3,1.9,0.6,2.6,1s1.3,0.7,1.7,1.1
		s0.8,0.9,1,1.4S415.2,273.4,415.2,274.1z"/>
	<path d="M110.4,307h-5.2v-2.5h8.3v15.1h5.3v2.5h-14.2v-2.5h5.8V307z M111.4,297c0.3,0,0.7,0.1,0.9,0.2s0.5,0.3,0.8,0.5
		s0.4,0.5,0.5,0.8s0.2,0.6,0.2,0.9c0,0.3-0.1,0.6-0.2,0.9s-0.3,0.6-0.5,0.8s-0.5,0.4-0.8,0.5s-0.6,0.2-0.9,0.2s-0.7-0.1-0.9-0.2
		s-0.5-0.3-0.8-0.5s-0.4-0.5-0.5-0.8s-0.2-0.6-0.2-0.9c0-0.3,0.1-0.7,0.2-0.9s0.3-0.5,0.5-0.8s0.5-0.4,0.8-0.5S111.1,297,111.4,297z
		"/>
	<path d="M124.2,304.4h2.7l0.1,2.8c0.5-0.6,1-1.1,1.5-1.5s1-0.7,1.4-1s0.9-0.4,1.4-0.5s1-0.1,1.5-0.1c1.8,0,3.2,0.5,4.1,1.6
		s1.4,2.7,1.4,4.8v11.5h-3.1v-11.3c0-1.4-0.3-2.4-0.8-3.1s-1.3-1-2.3-1c-0.4,0-0.7,0.1-1.1,0.2s-0.7,0.3-1.1,0.6s-0.8,0.6-1.3,1.1
		s-1,1.1-1.5,1.8v11.7h-3.1V304.4z"/>
	<path d="M176.3,322.1v-12.7c0-0.6,0-1-0.1-1.4s-0.1-0.6-0.2-0.8s-0.2-0.3-0.3-0.4s-0.3-0.1-0.5-0.1c-0.2,0-0.5,0.1-0.7,0.2
		s-0.4,0.4-0.6,0.7s-0.5,0.7-0.8,1.3s-0.6,1.2-1,1.9v11.3h-2.8v-12.3c0-0.6,0-1.2-0.1-1.6s-0.1-0.7-0.2-0.9s-0.2-0.4-0.3-0.5
		s-0.3-0.1-0.5-0.1c-0.2,0-0.4,0.1-0.6,0.2s-0.4,0.3-0.6,0.6s-0.5,0.7-0.8,1.2s-0.6,1.2-1,2v11.3h-2.8v-17.6h2.3l0.1,3.4
		c0.3-0.7,0.6-1.2,0.9-1.7s0.6-0.8,0.9-1.1s0.6-0.5,1-0.6s0.7-0.2,1.2-0.2c0.9,0,1.7,0.3,2.2,0.9s0.7,1.6,0.7,2.9
		c0.3-0.6,0.6-1.2,0.8-1.6s0.6-0.9,0.9-1.2s0.7-0.6,1-0.7s0.8-0.3,1.3-0.3c2.2,0,3.3,1.7,3.3,5.1v12.8H176.3z"/>
	<path d="M194.9,322.1l-0.1-2.4c-1,0.9-1.9,1.6-2.9,2.1s-2,0.6-3.1,0.6c-1,0-1.9-0.1-2.6-0.4s-1.3-0.6-1.8-1.1s-0.8-1-1-1.6
		s-0.3-1.3-0.3-2c0-1.8,0.7-3.2,2-4.2s3.3-1.5,5.8-1.5h3.7v-1.5c0-1-0.3-1.9-1-2.5s-1.7-0.9-3.1-0.9c-1,0-2,0.1-2.9,0.3
		s-2,0.5-3,0.9v-2.8c0.4-0.1,0.8-0.3,1.3-0.4s1-0.3,1.5-0.4s1.1-0.2,1.7-0.3s1.2-0.1,1.7-0.1c1.1,0,2,0.1,2.9,0.4s1.6,0.6,2.2,1.1
		s1,1.1,1.4,1.8s0.5,1.6,0.5,2.6v12.2H194.9z M194.5,314h-3.9c-0.8,0-1.4,0.1-2,0.2s-1,0.4-1.4,0.7s-0.6,0.6-0.8,1s-0.3,0.8-0.3,1.3
		c0,0.3,0.1,0.7,0.2,1s0.3,0.6,0.5,0.8s0.5,0.4,0.9,0.6s0.8,0.2,1.4,0.2c0.7,0,1.5-0.2,2.4-0.6s1.9-1.1,2.9-2V314z"/>
	<path d="M217.6,321.8c-0.7,0.2-1.4,0.3-2.1,0.4s-1.5,0.1-2.3,0.1c-2.2,0-3.9-0.5-5-1.5s-1.6-2.5-1.6-4.6V307h-4.9v-2.6h4.9v-4.9
		l3.1-0.8v5.6h7.9v2.6h-7.9v9c0,1.3,0.3,2.2,1,2.8s1.7,0.9,3,0.9c0.6,0,1.2,0,1.8-0.1s1.4-0.2,2.1-0.4V321.8z"/>
	<path d="M237.3,322.1h-3.1v-11.3c0-1.4-0.3-2.4-0.8-3s-1.2-1-2.2-1c-0.4,0-0.8,0.1-1.2,0.2s-0.7,0.3-1.1,0.6s-0.8,0.6-1.3,1.1
		s-1,1.1-1.6,1.8v11.7h-3.1v-24.8h3.1v7.2l-0.1,2.8c0.5-0.6,1-1.1,1.4-1.5s0.9-0.7,1.4-1s0.9-0.4,1.4-0.5s1-0.2,1.5-0.2
		c1.8,0,3.1,0.5,4.1,1.6s1.4,2.7,1.4,4.8V322.1z"/>
	<path d="M257.8,312.3c0,0.4,0,0.8,0,1.1s0,0.6-0.1,0.8h-12.4c0,1.8,0.5,3.2,1.5,4.2s2.5,1.5,4.4,1.5c0.5,0,1,0,1.5-0.1
		s1-0.1,1.5-0.2s0.9-0.1,1.4-0.2s0.8-0.2,1.2-0.3v2.5c-0.8,0.2-1.8,0.4-2.8,0.6s-2.1,0.2-3.3,0.2c-1.5,0-2.8-0.2-3.9-0.6
		s-2-1-2.7-1.8s-1.2-1.7-1.5-2.9s-0.5-2.4-0.5-3.8c0-1.2,0.2-2.4,0.5-3.5s0.9-2.1,1.6-2.9s1.5-1.5,2.5-2s2.1-0.7,3.4-0.7
		c1.2,0,2.3,0.2,3.3,0.6s1.7,0.9,2.4,1.6s1.1,1.6,1.5,2.6S257.8,311.1,257.8,312.3z M254.6,311.9c0-0.8,0-1.5-0.2-2.2
		s-0.5-1.2-0.9-1.7s-0.9-0.8-1.5-1.1s-1.3-0.4-2-0.4c-0.7,0-1.3,0.1-1.8,0.4s-1,0.6-1.4,1.1s-0.7,1-1,1.7s-0.4,1.4-0.5,2.2H254.6z"
		/>
	<path d="M275.3,322.1v-12.7c0-0.6,0-1-0.1-1.4s-0.1-0.6-0.2-0.8s-0.2-0.3-0.3-0.4s-0.3-0.1-0.5-0.1c-0.2,0-0.5,0.1-0.7,0.2
		s-0.4,0.4-0.6,0.7s-0.5,0.7-0.8,1.3s-0.6,1.2-1,1.9v11.3h-2.8v-12.3c0-0.6,0-1.2-0.1-1.6s-0.1-0.7-0.2-0.9s-0.2-0.4-0.3-0.5
		s-0.3-0.1-0.5-0.1c-0.2,0-0.4,0.1-0.6,0.2s-0.4,0.3-0.6,0.6s-0.5,0.7-0.8,1.2s-0.6,1.2-1,2v11.3h-2.8v-17.6h2.3l0.1,3.4
		c0.3-0.7,0.6-1.2,0.9-1.7s0.6-0.8,0.9-1.1s0.6-0.5,1-0.6s0.7-0.2,1.2-0.2c0.9,0,1.7,0.3,2.2,0.9s0.7,1.6,0.7,2.9
		c0.3-0.6,0.6-1.2,0.8-1.6s0.6-0.9,0.9-1.2s0.7-0.6,1-0.7s0.8-0.3,1.3-0.3c2.2,0,3.3,1.7,3.3,5.1v12.8H275.3z"/>
	<path d="M293.8,322.1l-0.1-2.4c-1,0.9-1.9,1.6-2.9,2.1s-2,0.6-3.1,0.6c-1,0-1.9-0.1-2.6-0.4s-1.3-0.6-1.8-1.1s-0.8-1-1-1.6
		s-0.3-1.3-0.3-2c0-1.8,0.7-3.2,2-4.2s3.3-1.5,5.8-1.5h3.7v-1.5c0-1-0.3-1.9-1-2.5s-1.7-0.9-3.1-0.9c-1,0-2,0.1-2.9,0.3
		s-2,0.5-3,0.9v-2.8c0.4-0.1,0.8-0.3,1.3-0.4s1-0.3,1.5-0.4s1.1-0.2,1.7-0.3s1.2-0.1,1.7-0.1c1.1,0,2,0.1,2.9,0.4s1.6,0.6,2.2,1.1
		s1,1.1,1.4,1.8s0.5,1.6,0.5,2.6v12.2H293.8z M293.5,314h-3.9c-0.8,0-1.4,0.1-2,0.2s-1,0.4-1.4,0.7s-0.6,0.6-0.8,1s-0.3,0.8-0.3,1.3
		c0,0.3,0.1,0.7,0.2,1s0.3,0.6,0.5,0.8s0.5,0.4,0.9,0.6s0.8,0.2,1.4,0.2c0.7,0,1.5-0.2,2.4-0.6s1.9-1.1,2.9-2V314z"/>
	<path d="M316.5,321.8c-0.7,0.2-1.4,0.3-2.1,0.4s-1.5,0.1-2.3,0.1c-2.2,0-3.9-0.5-5-1.5s-1.6-2.5-1.6-4.6V307h-4.9v-2.6h4.9v-4.9
		l3.1-0.8v5.6h7.9v2.6h-7.9v9c0,1.3,0.3,2.2,1,2.8s1.7,0.9,3,0.9c0.6,0,1.2,0,1.8-0.1s1.4-0.2,2.1-0.4V321.8z"/>
	<path d="M328.1,307h-5.2v-2.5h8.3v15.1h5.3v2.5h-14.2v-2.5h5.8V307z M329.2,297c0.3,0,0.7,0.1,0.9,0.2s0.5,0.3,0.8,0.5
		s0.4,0.5,0.5,0.8s0.2,0.6,0.2,0.9c0,0.3-0.1,0.6-0.2,0.9s-0.3,0.6-0.5,0.8s-0.5,0.4-0.8,0.5s-0.6,0.2-0.9,0.2s-0.7-0.1-0.9-0.2
		s-0.5-0.3-0.8-0.5s-0.4-0.5-0.5-0.8s-0.2-0.6-0.2-0.9c0-0.3,0.1-0.7,0.2-0.9s0.3-0.5,0.5-0.8s0.5-0.4,0.8-0.5S328.8,297,329.2,297z
		"/>
	<path d="M355.6,321.4c-0.8,0.3-1.6,0.5-2.5,0.7s-1.7,0.2-2.6,0.2c-2.8,0-4.9-0.8-6.4-2.3s-2.3-3.7-2.3-6.6c0-1.4,0.2-2.7,0.7-3.8
		s1-2.1,1.8-2.9s1.7-1.4,2.8-1.9s2.3-0.7,3.6-0.7c0.9,0,1.8,0.1,2.6,0.2s1.6,0.3,2.3,0.6v2.9c-0.8-0.4-1.5-0.7-2.3-0.9
		s-1.6-0.3-2.5-0.3c-0.8,0-1.5,0.1-2.2,0.4s-1.3,0.7-1.8,1.3s-0.9,1.2-1.2,2.1s-0.5,1.7-0.5,2.7c0,2.1,0.5,3.7,1.6,4.8
		s2.5,1.6,4.3,1.6c0.8,0,1.6-0.1,2.4-0.3s1.5-0.5,2.3-0.8V321.4z"/>
	<path d="M375.6,317.3c0,0.6-0.1,1.2-0.3,1.7s-0.5,0.9-0.9,1.3s-0.8,0.7-1.3,1s-1,0.5-1.5,0.7s-1.1,0.3-1.7,0.4s-1.1,0.1-1.7,0.1
		c-1.2,0-2.3-0.1-3.3-0.2s-2-0.3-2.9-0.5v-2.8c1,0.3,2.1,0.5,3.1,0.7s2,0.2,3,0.2c1.5,0,2.5-0.2,3.3-0.6s1.1-1,1.1-1.7
		c0-0.3-0.1-0.6-0.2-0.9s-0.3-0.5-0.6-0.7s-0.7-0.5-1.4-0.7s-1.5-0.5-2.5-0.8c-0.8-0.2-1.5-0.5-2.2-0.8s-1.3-0.7-1.7-1.1
		s-0.9-0.9-1.2-1.4s-0.4-1.2-0.4-2c0-0.5,0.1-1,0.3-1.6s0.6-1.1,1.2-1.6s1.3-0.9,2.2-1.3s2.1-0.5,3.5-0.5c0.7,0,1.5,0,2.3,0.1
		s1.7,0.2,2.6,0.4v2.7c-1-0.2-1.9-0.4-2.7-0.5s-1.6-0.2-2.2-0.2c-0.8,0-1.4,0.1-1.9,0.2s-0.9,0.3-1.3,0.5s-0.6,0.4-0.7,0.7
		s-0.2,0.6-0.2,0.9s0.1,0.6,0.2,0.9s0.4,0.5,0.7,0.7s0.8,0.5,1.4,0.7s1.4,0.5,2.3,0.8c1,0.3,1.9,0.6,2.6,1s1.3,0.7,1.7,1.1
		s0.8,0.9,1,1.4S375.6,316.6,375.6,317.3z"/>
	<path d="M388.4,316.5c0.4,0,0.8,0.1,1.1,0.2s0.7,0.4,0.9,0.6s0.5,0.6,0.6,0.9s0.2,0.7,0.2,1.2c0,0.4-0.1,0.8-0.2,1.1
		s-0.4,0.7-0.6,0.9s-0.6,0.5-0.9,0.6s-0.7,0.2-1.1,0.2c-0.4,0-0.8-0.1-1.1-0.2s-0.7-0.4-0.9-0.6s-0.5-0.6-0.6-0.9s-0.2-0.7-0.2-1.1
		c0-0.4,0.1-0.8,0.2-1.2s0.4-0.7,0.6-0.9s0.6-0.5,0.9-0.6S388,316.5,388.4,316.5z"/>
</g>
<g>
	<path d="M177.5,150.2l-4.1,14.4c-0.3,1-0.4,1.6-0.4,1.7c0,0.2,0.1,0.4,0.2,0.5s0.3,0.2,0.5,0.2c0.2,0,0.5-0.1,0.7-0.3
		c0.8-0.6,1.6-1.5,2.4-2.6l0.7,0.5c-0.9,1.4-2,2.6-3.3,3.6c-0.9,0.7-1.8,1.1-2.7,1.1c-0.6,0-1-0.2-1.4-0.5s-0.5-0.8-0.5-1.3
		s0.2-1.3,0.5-2.5l2.7-9.2c0.4-1.5,0.7-2.4,0.7-2.8c0-0.3-0.1-0.5-0.3-0.7s-0.5-0.3-0.9-0.3c-0.3,0-0.9,0.1-1.9,0.2v-0.8
		L177.5,150.2z M177.2,142c0.6,0,1.1,0.2,1.5,0.6s0.6,0.9,0.6,1.5c0,0.6-0.2,1-0.6,1.4s-0.9,0.6-1.4,0.6s-1-0.2-1.4-0.6
		s-0.6-0.9-0.6-1.4c0-0.6,0.2-1.1,0.6-1.5S176.7,142,177.2,142z"/>
	<path d="M184.7,155.5v-3l4.6-3.5c0.8-0.6,1.5-1.2,2-1.6c0.5-0.4,0.9-0.9,1.2-1.2c0.3-0.4,0.5-0.7,0.6-1c0.1-0.3,0.2-0.7,0.2-1
		c0-0.6-0.2-1.2-0.7-1.6c-0.5-0.4-1.2-0.6-2.1-0.6c-0.7,0-1.4,0.1-2,0.4c-0.6,0.3-1.2,0.6-1.7,1.1l-1.8-2.2c0.8-0.8,1.7-1.3,2.7-1.8
		c1-0.4,2.2-0.6,3.3-0.6c0.9,0,1.7,0.1,2.5,0.3c0.8,0.2,1.4,0.5,2,1c0.6,0.4,1,1,1.3,1.6c0.3,0.6,0.5,1.4,0.5,2.2
		c0,0.7-0.1,1.3-0.3,1.8c-0.2,0.6-0.5,1.1-0.9,1.7c-0.4,0.5-0.9,1.1-1.5,1.6c-0.6,0.5-1.3,1-2,1.6l-2.4,1.7h8.1v3.2H184.7z"/>
	<path d="M246.6,155.5H229v-3h17.6V155.5z M246.6,162.6H229v-3h17.6V162.6z"/>
	<path d="M290.1,159.2h-12.3v-3.4h12.3V159.2z"/>
	<path d="M316,168.7h-16.8v-3.3h6.9v-19.6l-6.4,3.5l-1.3-3l8.5-4.5h3.2v23.6h6V168.7z"/>
</g>
<line class="st1" x1="68.3" y1="194.6" x2="418.2" y2="194.6"/>
</svg>
